<svg width="208" height="74" viewBox="0 0 208 74" fill="none" xmlns="http://www.w3.org/2000/svg">
<path d="M0.0235676 26.9585C0.0235676 18.5147 0.041794 10.0682 0.000133591 1.62439C-0.00247018 0.617569 0.2527 0.326939 1.2864 0.326939C17.7943 0.355483 34.2997 0.350294 50.8076 0.313965C51.7788 0.313965 52.0522 0.560481 52.0366 1.52838C51.9949 4.19854 52.0548 6.8713 52.1095 9.54146C52.1251 10.3511 51.9793 10.6235 51.0888 10.294C45.6105 8.26477 40.2337 8.64881 34.9584 11.0595C33.1384 11.8925 31.1725 11.9521 29.2301 11.9807C24.5954 12.043 19.9581 12.0637 15.3234 12.0118C14.2141 11.9988 13.946 12.3388 13.9876 13.3871C14.0683 15.4527 14.0553 17.5234 13.9902 19.589C13.9642 20.4634 14.2688 20.6581 15.0942 20.6555C19.0806 20.6503 23.0644 20.7229 27.0508 20.7359C30.6049 20.7489 33.9638 21.6182 37.3122 22.7392C41.2413 24.0548 45.298 24.1612 49.3521 23.3049C51.9038 22.7651 51.8986 22.721 51.922 25.3367C51.9324 26.5433 51.9012 27.7499 51.935 28.9566C51.9559 29.6754 51.8022 29.9193 50.9742 29.7636C45.9568 28.8165 41.0044 28.9125 36.2134 30.9157C34.7397 31.5307 33.1774 31.6319 31.6256 31.6579C26.254 31.7435 20.8824 31.811 15.5108 31.7721C14.2115 31.7617 13.9277 32.1431 13.9798 33.3549C14.0787 35.6774 14.0631 38.0076 13.985 40.3327C13.9486 41.3888 14.2272 41.7157 15.3312 41.708C21.0933 41.6638 26.8555 41.708 32.6176 41.7132C34.2346 41.7132 35.7317 42.1673 37.2888 42.585C41.7152 43.7735 46.2171 44.853 50.8258 43.4414C51.771 43.1507 52.0314 43.3505 52.0131 44.321C51.9611 46.9471 51.9402 49.5783 52.0131 52.2044C52.0418 53.2761 51.7293 53.5667 50.6462 53.5641C39.0776 53.5356 27.509 53.5641 15.943 53.5771C11.0896 53.5823 6.23878 53.5667 1.38534 53.6342C0.325605 53.6497 -0.00767773 53.398 0.000133591 52.2952C0.0470015 43.8514 0.0261713 35.4049 0.0261713 26.9611L0.0235676 26.9585Z" fill="#E41A2D"/>
<path d="M155.563 53.2813C154.441 53.315 153.321 53.3747 152.199 53.3773C147.39 53.3877 142.578 53.3513 137.771 53.4058C136.769 53.4162 136.092 53.0919 135.412 52.3938C129.812 46.6461 124.18 40.9243 118.545 35.2077C118.23 34.8886 118.006 34.4241 117.459 34.3462C117.196 34.751 117.332 35.1896 117.332 35.597C117.319 41.1137 117.306 46.6279 117.342 52.1447C117.347 53.0555 117.191 53.4162 116.152 53.4058C106.013 53.315 95.8739 53.2839 85.7348 53.232C85.3573 53.232 84.9797 53.1853 84.2871 53.1386C85.3937 52.4639 86.3753 52.3601 87.2893 52.1058C93.7518 50.3153 99.139 47.1132 102.258 40.9113C104.026 37.3978 104.99 33.6871 105.146 29.748C105.336 24.9449 105.284 20.1261 103.776 15.5435C101.256 7.88074 95.7385 3.19693 88.0574 0.916003C87.3257 0.698031 86.5862 0.516387 85.8546 0.0934168C86.2451 0.0622778 86.6331 0 87.0237 0C96.8165 0.0233542 106.609 0.0648727 116.402 0.0648727C117.28 0.0648727 117.472 0.355503 117.462 1.17549C117.389 6.60405 117.365 12.0326 117.326 17.4611C117.324 17.8815 117.326 18.2993 117.326 18.8287C117.962 18.6392 118.238 18.1747 118.579 17.8296C124.065 12.2713 129.538 6.70265 135.011 1.13138C135.436 0.698031 135.813 0.316579 136.532 0.321769C142.51 0.355503 148.491 0.342528 154.469 0.350313C154.589 0.350313 154.709 0.394426 155.058 0.461894C154.657 0.877079 154.352 1.19885 154.042 1.51543C146.15 9.55186 138.274 17.6013 130.348 25.604C129.569 26.3876 129.637 26.7509 130.374 27.4983C138.513 35.7163 146.611 43.9733 154.714 52.2226C155.011 52.5262 155.256 52.8791 155.526 53.2086L155.571 53.2865L155.563 53.2813Z" fill="#266602"/>
<path d="M51.9609 38.9914C52.8202 38.3738 53.8096 38.6774 54.7314 38.6618C55.9265 38.6437 56.3769 38.0287 56.3613 36.9751C56.3483 36.0046 56.4446 34.9252 54.9631 34.8577C54.2757 34.8266 53.5935 34.6709 52.9087 34.5723C52.6692 34.5385 52.4973 34.4243 52.5155 34.1623C52.5338 33.908 52.7186 33.7912 52.953 33.7808C53.3409 33.7652 53.7341 33.7523 54.1221 33.773C55.2391 33.8327 55.3432 33.389 54.7418 32.5794C54.5387 32.3069 54.3851 31.9644 54.1195 31.7801C52.6483 30.7448 52.2916 29.315 52.5129 27.6387C52.5624 27.2572 52.5494 26.8602 52.5129 26.4761C52.2916 24.2808 52.7499 22.5371 54.4788 20.8011C57.3794 17.8922 56.9394 13.2265 53.4451 11.2207C52.9738 10.9508 52.9504 10.5564 52.9321 10.1308C52.8124 7.16482 52.7108 4.19884 52.5728 1.23286C52.5234 0.153374 53.2732 0.350587 53.8877 0.350587C62.8968 0.350587 71.9059 0.25198 80.9123 0.40508C85.7788 0.488117 90.4708 1.71291 94.5223 4.49206C98.631 7.31013 101.641 11.0286 103.065 15.9512C104.362 20.4352 104.875 24.9893 104.43 29.5771C103.919 34.8266 102.615 39.91 99.3288 44.2409C97.2796 46.9422 94.3738 48.5458 91.4081 49.9938C88.3201 51.5014 85.0055 52.3656 81.6258 52.978C81.1597 53.0636 80.6806 53.0895 80.2067 53.0999C71.5491 53.2712 62.889 53.4321 54.2288 53.3879C53.1118 53.3828 52.6926 53.0817 52.7317 51.927C52.8072 49.5163 52.8176 47.1005 52.7264 44.6924C52.6822 43.5221 52.9998 42.7332 54.0778 42.222C54.7991 41.8795 55.2755 41.2567 55.6062 40.538C55.8848 39.9359 55.8275 39.6142 55.0126 39.6012C53.9997 39.5856 52.9374 39.9645 51.974 39.3443C51.974 39.2249 51.974 39.1082 51.9714 38.9888L51.9609 38.9914ZM78.7642 11.3245C75.1293 11.3245 71.4919 11.3582 67.857 11.3037C66.8467 11.2881 66.5056 11.558 66.5395 12.596C66.7556 19.2182 66.7296 25.8534 67.1696 32.4574C67.417 36.1863 69.2292 39.3417 72.9968 40.813C75.4392 41.7679 78.0404 41.9729 80.6285 41.5603C82.2715 41.2983 84.0733 41.306 85.4663 40.3511C88.2758 38.4257 90.1141 35.7192 90.4057 32.2991C90.9655 25.7392 90.9733 19.1533 91.0228 12.57C91.0306 11.4983 90.6452 11.2907 89.6714 11.3037C86.0365 11.353 82.3991 11.3245 78.7642 11.3245Z" fill="#F2C231"/>
<path d="M155.563 53.2812L155.519 53.2033C155.998 52.7388 155.782 52.142 155.782 51.61C155.795 35.0649 155.789 18.5171 155.795 1.972C155.795 0.116638 155.586 0.35537 157.479 0.347585C161.119 0.337206 164.759 0.404673 168.397 0.311257C169.61 0.280118 169.79 0.677139 169.785 1.75922C169.748 14.5573 169.782 27.3554 169.73 40.1509C169.725 41.4172 170.063 41.6975 171.303 41.6923C183.046 41.643 194.786 41.6845 206.529 41.6326C207.763 41.6274 208.021 42.0011 207.992 43.1402C207.914 46.197 207.935 49.259 207.985 52.3184C207.998 53.167 207.748 53.3979 206.896 53.3979C190.128 53.3746 173.36 53.3798 156.591 53.3772C156.248 53.3772 155.904 53.3175 155.56 53.2837L155.563 53.2812Z" fill="#033397"/>
<path d="M123.51 61.7486C123.51 64.9741 123.463 68.1425 123.536 71.3056C123.562 72.4318 123.331 72.8574 122.083 72.8081C119.433 72.7017 119.43 72.7796 119.43 70.182C119.43 65.6617 119.461 61.1388 119.407 56.6185C119.396 55.6376 119.698 55.4767 120.636 55.3859C122.339 55.2224 123.461 55.8659 124.505 57.1297C126.429 59.4599 128.343 61.7927 130.116 64.2371C130.358 64.5693 130.616 64.891 131.116 65.5449V57.7343C131.116 56.1998 131.881 55.4326 133.412 55.4326C134.619 55.4326 135.222 56.0528 135.222 57.2931C135.222 62.073 135.201 66.8528 135.24 71.63C135.248 72.5045 135.032 72.7328 134.115 72.8159C132.405 72.969 131.397 72.4111 130.535 70.8775C128.89 67.9478 126.851 65.2569 124.648 62.7009C124.357 62.3636 124.159 61.8965 123.508 61.7434L123.51 61.7486Z" fill="#363636"/>
<path d="M68.9169 64.0917C68.9169 61.598 68.9247 59.1017 68.9117 56.608C68.9091 56.0501 68.9195 55.583 69.6486 55.5155C72.4919 55.2509 75.3404 54.955 78.1733 55.5622C82.9044 56.5743 85.128 59.5273 85.0082 64.5899C84.9067 68.9909 82.1467 71.988 77.5172 72.7613C74.9681 73.1869 72.432 72.9663 69.8881 72.725C69.1617 72.6549 68.8779 72.3643 68.8961 71.5754C68.9534 69.0817 68.9169 66.588 68.9169 64.0917ZM73.0621 63.9931C73.0621 65.2413 73.0621 66.4894 73.0621 67.7402C73.0621 69.0687 73.7495 69.7045 75.1243 69.6474C77.9546 69.528 79.7773 68.3318 80.4673 66.1365C81.8368 61.79 79.5169 58.6009 74.9629 58.5646C74.6166 58.562 74.2677 58.5983 73.924 58.5646C73.2314 58.5023 73.0309 58.8111 73.0491 59.4702C73.0882 60.9752 73.0621 62.4829 73.0595 63.9905L73.0621 63.9931Z" fill="#363636"/>
<path d="M105.055 72.7745C103.586 72.7745 102.261 72.7563 100.935 72.7823C100.36 72.7927 100.248 72.3515 100.024 72.0064C98.9879 70.4183 97.9646 68.8224 96.9179 67.2396C96.6028 66.7647 96.2279 66.4325 95.5587 66.4118C94.6187 66.3806 94.1214 66.5493 94.1995 67.6599C94.2985 69.0742 94.1969 70.5014 94.236 71.9208C94.2542 72.6032 93.999 72.7719 93.3351 72.7953C90.0881 72.9042 90.0882 72.925 90.0908 69.7462C90.0908 65.4387 90.122 61.1311 90.0725 56.8262C90.0621 55.8842 90.3615 55.5469 91.2833 55.4613C94.137 55.1966 96.9882 54.9604 99.7976 55.7493C102.753 56.5771 104.109 58.4065 103.987 61.3024C103.909 63.1552 103.008 64.4941 101.36 65.296C100.688 65.6229 100.717 65.885 101.126 66.4066C102.49 68.14 103.659 70.0005 104.693 71.9441C104.807 72.1621 104.891 72.3982 105.055 72.7745ZM94.2177 60.9547C94.2177 61.51 94.2229 62.0679 94.2177 62.6232C94.2125 62.9943 94.2568 63.3264 94.7437 63.3186C96.0326 63.3031 97.3371 63.3783 98.5582 62.8542C99.4149 62.4857 99.7455 61.7539 99.7351 60.882C99.7247 60.0543 99.381 59.3692 98.5582 59.0552C98.0401 58.858 97.4959 58.6867 96.9491 58.6167C94.2464 58.2612 94.2177 58.2975 94.2177 60.9547Z" fill="#363636"/>
<path d="M190.886 72.7741C189.477 72.7741 188.066 72.7585 186.655 72.7819C186.089 72.7897 185.957 72.3433 185.715 72.0138C184.157 69.8834 182.442 67.8957 180.431 66.1726C180.226 65.9962 180.015 65.6121 179.692 65.8509C179.546 65.9573 179.551 66.3154 179.549 66.5593C179.538 68.3238 179.512 70.0883 179.557 71.8529C179.575 72.595 179.314 72.7819 178.591 72.7974C175.409 72.8649 175.409 72.8883 175.409 69.6887C175.409 65.2981 175.427 60.9076 175.393 56.517C175.388 55.7048 175.568 55.4141 176.453 55.4141C179.544 55.4141 179.544 55.3752 179.544 58.4969C179.544 59.5193 179.544 60.5391 179.544 61.6341C180.898 60.3471 182.337 59.2857 183.376 57.9234C184.913 55.9124 186.725 54.9808 189.237 55.4271C189.605 55.492 189.993 55.4349 190.716 55.4349C189.594 56.6415 188.691 57.6484 187.748 58.6188C186.425 59.9812 185.103 61.3461 183.717 62.6462C183.108 63.217 183.064 63.5206 183.746 64.0915C186.384 66.2946 188.516 68.9492 190.453 71.7647C190.638 72.0345 190.933 72.2681 190.883 72.7741H190.886Z" fill="#363636"/>
<path d="M145.575 61.6813C147.27 59.8986 148.996 58.1471 150.642 56.3203C151.248 55.6456 151.873 55.3601 152.771 55.4198C153.875 55.4925 154.99 55.438 156.393 55.438C154.18 57.9784 152.058 60.2256 149.769 62.2911C148.723 63.2357 148.905 63.6509 149.866 64.4631C152.589 66.7622 154.716 69.588 156.854 72.7694C155.175 72.7694 153.698 72.7772 152.219 72.7642C151.74 72.759 151.639 72.2945 151.42 71.9987C149.702 69.6659 147.816 67.4913 145.265 65.444C145.265 67.3408 145.265 68.9808 145.265 70.6182C145.265 72.061 144.54 72.7824 143.091 72.7824C141.778 72.7824 141.122 72.1276 141.122 70.818C141.122 66.0823 141.153 61.344 141.096 56.6083C141.083 55.6067 141.393 55.4043 142.333 55.4198C145.262 55.4613 145.265 55.4198 145.265 58.404C145.265 59.4627 145.265 60.524 145.265 61.5827L145.572 61.6891L145.575 61.6813Z" fill="#363636"/>
<path d="M16.0837 72.7222C17.3231 69.5668 18.4844 66.4763 19.7525 63.4273C20.7263 61.0841 21.8563 58.8057 22.8692 56.4781C23.2025 55.7126 23.6503 55.4946 24.507 55.3857C26.7306 55.1054 27.8268 55.9384 28.7042 58.0195C30.6102 62.5398 32.5214 67.0524 34.2945 71.6272C34.7033 72.6781 34.4039 72.8053 33.4145 72.7949C30.355 72.7586 30.3342 72.8027 29.2562 69.9223C29.0089 69.2606 28.699 68.97 27.957 68.9908C26.1838 69.0453 24.408 69.0375 22.6322 68.9934C21.9448 68.9778 21.6532 69.258 21.4189 69.8652C21.0491 70.815 21.0517 72.1877 20.2342 72.6107C19.3775 73.0544 18.1251 72.7534 17.0471 72.769C16.7894 72.7715 16.5342 72.743 16.0863 72.7196L16.0837 72.7222ZM25.3167 59.3585C24.4783 61.4577 23.7597 63.2949 23.0098 65.1192C22.7754 65.6874 22.9004 65.9054 23.5253 65.895C24.7361 65.8769 25.9494 65.8821 27.1602 65.8924C27.6679 65.895 27.8867 65.7601 27.6601 65.21C26.8998 63.3546 26.1656 61.4889 25.3167 59.3585Z" fill="#363636"/>
<path d="M0.263262 64.0579C0.263262 61.5175 0.294507 58.9745 0.245035 56.434C0.229413 55.6374 0.458545 55.4065 1.26051 55.4168C4.72613 55.4584 8.18916 55.4506 11.6548 55.422C12.3864 55.4168 12.7223 55.5258 12.7249 56.3873C12.7249 58.715 12.7744 58.715 10.4232 58.715C8.69168 58.715 6.95757 58.7357 5.22606 58.7046C4.61677 58.6942 4.42409 58.8888 4.39285 59.5116C4.26266 62.1247 4.23923 62.1221 6.9107 62.1247C8.20998 62.1247 9.51187 62.1636 10.8086 62.1091C11.561 62.078 11.7459 62.3478 11.7563 63.064C11.7902 65.2983 11.8214 65.2983 9.52229 65.2983C8.09282 65.2983 6.66334 65.3216 5.23387 65.2879C4.635 65.2749 4.4293 65.4462 4.39285 66.0767C4.19236 69.4657 4.17413 69.4657 7.55123 69.4657C9.06663 69.4657 10.5846 69.5098 12.0974 69.4475C12.9567 69.4112 13.3186 69.5928 13.3004 70.5555C13.2613 72.7716 13.316 72.7716 11.0403 72.7716C7.96523 72.7716 4.88757 72.7145 1.81511 72.8001C0.612168 72.8339 0.161715 72.5977 0.226809 71.2873C0.349186 68.8818 0.260658 66.466 0.260658 64.0527L0.263262 64.0579Z" fill="#363636"/>
<path d="M42.6291 55.4351C44.7955 55.4351 46.9618 55.4636 49.1282 55.4195C49.8807 55.4039 50.1801 55.5544 50.1775 56.3978C50.1723 58.7747 50.2192 58.7773 47.8029 58.7773C45.6869 58.7773 44.6288 59.8118 44.6288 61.8808C44.6288 65.1556 44.6054 68.4304 44.6445 71.7052C44.6549 72.5381 44.4336 72.8002 43.5587 72.8002C40.4862 72.8002 40.4862 72.8391 40.4862 69.8368C40.4862 66.6062 40.4211 63.3729 40.5201 60.1422C40.5565 58.9382 40.1556 58.6657 39.0594 58.7566C37.984 58.8474 36.893 58.7462 35.8125 58.7877C35.1459 58.8136 34.9246 58.5957 34.8959 57.9132C34.7892 55.4351 34.7631 55.4351 37.2992 55.4377C39.075 55.4377 40.8534 55.4377 42.6291 55.4377V55.4351Z" fill="#363636"/>
<path d="M195.151 64.0449C195.151 61.5045 195.182 58.9641 195.132 56.4237C195.117 55.6218 195.354 55.4194 196.153 55.4142C199.288 55.3935 199.288 55.3623 199.288 58.4555C199.288 61.7277 199.317 64.9998 199.27 68.272C199.257 69.1491 199.473 69.4735 200.408 69.4397C202.397 69.3697 204.391 69.4631 206.381 69.3982C207.261 69.3697 207.456 69.6733 207.451 70.4959C207.433 72.7768 207.469 72.7794 205.126 72.7794C202.139 72.7794 199.15 72.7508 196.163 72.7975C195.372 72.8105 195.117 72.6081 195.132 71.7985C195.182 69.2166 195.151 66.632 195.151 64.0501V64.0449Z" fill="#363636"/>
<path d="M113.577 64.1539C113.577 66.6917 113.548 69.2321 113.595 71.7699C113.611 72.551 113.4 72.7898 112.587 72.7975C109.432 72.8287 109.432 72.8624 109.432 69.6707C109.432 65.2827 109.452 60.8921 109.413 56.5041C109.405 55.6815 109.606 55.4116 110.478 55.4116C113.579 55.4116 113.579 55.3753 113.579 58.4736C113.579 60.3679 113.579 62.2596 113.579 64.1539H113.577Z" fill="#363636"/>
<path d="M44.043 34.6756C46.3525 33.3185 48.873 33.687 51.357 33.7026C51.6746 33.7026 51.8126 33.8998 51.7866 34.2112C51.7449 34.7042 51.383 34.6782 51.0263 34.6782C48.6985 34.6756 46.3707 34.6782 44.0456 34.6782L44.043 34.6756Z" fill="#E41A2D"/>
<path d="M51.9611 38.9909C51.9611 39.1103 51.9611 39.2271 51.9637 39.3464C50.2739 40.1716 48.5007 39.6682 46.7744 39.6007C45.8344 39.5644 44.8164 39.5151 43.9519 39.0376C43.9988 38.555 44.3216 38.651 44.5482 38.6484C46.5739 38.6328 48.5996 38.638 50.6254 38.6251C51.1123 38.6225 51.5601 38.7133 51.9637 38.9883L51.9611 38.9909Z" fill="#E41A2D"/>
</svg>
