<svg width="197" height="59" viewBox="0 0 197 59" fill="none" xmlns="http://www.w3.org/2000/svg">
<path d="M178.859 0C180.002 0.476641 181.235 0.289304 182.421 0.436328C187.576 1.08133 192.252 2.89542 196.492 5.88331C197.078 6.29593 197.106 6.59472 196.753 7.19941C194.801 10.5217 192.878 13.8605 191.005 17.2302C190.585 17.9843 190.305 17.9155 189.722 17.4507C187.59 15.7529 185.375 14.183 182.729 13.3531C181.171 12.8622 179.577 12.58 177.948 12.8408C176.234 13.1159 174.913 13.9696 174.382 15.7054C173.836 17.4911 174.614 18.838 175.956 19.9501C177.244 21.0173 178.745 21.7121 180.251 22.4069C183.324 23.8249 186.428 25.179 189.146 27.2681C192.442 29.8007 193.964 33.187 194.256 37.2278C195.074 48.5296 186.857 55.1481 179.523 57.3819C171.195 59.9192 163.163 58.7928 155.394 55.1172C152.387 53.6944 149.62 51.8922 147.002 49.8505C146.518 49.4711 146.383 49.2173 146.784 48.6411C149.366 44.9252 151.923 41.1879 154.441 37.427C154.922 36.7085 155.174 36.9053 155.636 37.408C158.688 40.716 162.25 43.2344 166.703 44.2944C168.638 44.7544 170.602 44.9276 172.553 44.4011C174.137 43.9743 175.371 43.0874 175.681 41.3776C175.985 39.713 175.015 38.634 173.758 37.7471C172.297 36.7132 170.628 36.099 168.994 35.4161C165.963 34.1521 163.082 32.6392 160.495 30.5856C156.087 27.0855 154.709 22.4851 155.266 17.0571C156.16 8.33766 163.355 2.28598 171.887 0.72089C173.322 0.45767 174.766 0.24662 176.231 0.232392C176.485 0.230021 176.798 0.331989 176.962 0.0047427H178.856L178.859 0Z" fill="#0192FC"/>
<path d="M32.4519 0C33.5522 0.497983 34.7474 0.277448 35.8951 0.417357C41.0504 1.04814 45.7385 2.81479 49.9714 5.8264C50.6354 6.30067 50.6709 6.63266 50.2702 7.32035C48.3707 10.581 46.5092 13.8653 44.6952 17.1757C44.2636 17.9653 43.9743 17.9298 43.3269 17.4223C41.1856 15.741 38.9446 14.1949 36.3148 13.3507C34.6074 12.8029 32.8669 12.5089 31.0789 12.9547C29.5422 13.3365 28.4491 14.2471 28.0341 15.7789C27.6309 17.2729 28.1052 18.5558 29.2435 19.6205C31.0718 21.3326 33.3862 22.1674 35.6058 23.1704C38.1977 24.3443 40.7042 25.6438 42.9427 27.4246C46.0302 29.8814 47.5479 33.104 47.8633 36.9835C48.7905 48.3636 40.633 55.3591 32.3784 57.6143C24.2968 59.822 16.5354 58.6695 9.04432 55.1172C5.78372 53.5735 2.84325 51.5507 0 49.3643V49.1272C0.400758 48.9588 0.512211 48.551 0.725632 48.2356C3.11832 44.7212 5.51575 41.2117 7.86576 37.6665C8.38271 36.8863 8.66016 36.782 9.36445 37.5242C12.1366 40.4505 15.3331 42.7744 19.2459 43.9814C21.5413 44.688 23.8771 45.0034 26.2342 44.3845C27.804 43.9719 29.0609 43.0992 29.3668 41.3729C29.6727 39.6418 28.634 38.5629 27.3416 37.6783C25.869 36.6681 24.2115 36.0326 22.5681 35.3663C19.2269 34.0075 16.0848 32.3191 13.3459 29.9359C7.44603 24.8067 7.90844 16.092 10.8726 10.709C14.0502 4.92529 19.2838 1.99193 25.6058 0.697176C27.2468 0.360445 28.9423 0.476641 30.5572 0H32.4519Z" fill="#0192FC"/>
<path d="M43.3766 57.2303C44.5385 54.9965 45.6886 52.7746 46.8482 50.5573C55.1645 34.6314 63.4903 18.7101 71.7806 2.76995C72.2691 1.8309 72.7718 1.4088 73.91 1.42065C80.0684 1.48942 86.2268 1.47282 92.3852 1.43251C93.2721 1.42777 93.5756 1.65305 93.6871 2.5589C94.4791 8.91648 95.3399 15.267 96.1746 21.6198C97.1682 29.182 98.1594 36.7419 99.1459 44.3041C99.6795 48.397 100.187 52.4947 100.754 56.5829C100.851 57.2754 100.635 57.3773 100.035 57.375C94.6664 57.3607 89.2953 57.3441 83.9266 57.3892C83.0374 57.3963 82.9757 56.9434 82.952 56.3126C82.8737 54.3088 82.767 52.305 82.722 50.3012C82.7077 49.6823 82.4919 49.4974 81.8873 49.4997C76.8339 49.5187 71.7806 49.5211 66.7272 49.495C66.0917 49.4926 65.8451 49.7606 65.6317 50.2989C64.7993 52.4212 63.9053 54.5175 63.0801 56.6422C62.8785 57.1592 62.6343 57.3797 62.0604 57.3773C55.94 57.3584 49.8219 57.3607 43.7014 57.356C43.6327 57.356 43.5663 57.3086 43.3718 57.2327L43.3766 57.2303ZM80.3696 18.0153C80.2107 18.1244 80.123 18.1529 80.0969 18.2098C77.0568 24.712 74.0334 31.2214 70.9743 37.7165C70.5641 38.5868 70.9767 38.6105 71.6454 38.6081C74.6784 38.5963 77.7161 38.5417 80.7466 38.6342C81.8801 38.6674 82.0343 38.2785 81.9489 37.2968C81.5885 33.192 81.2992 29.0824 80.9695 24.9753C80.7846 22.675 80.5735 20.3796 80.3696 18.0201V18.0153Z" fill="#0192FC"/>
<path d="M158.247 1.45353C156.006 4.38214 153.955 7.06651 151.901 9.74613C145.914 17.5621 139.935 25.3875 133.919 33.1798C132.978 34.3987 132.992 35.831 132.729 37.1897C131.484 43.5924 130.303 50.0069 129.141 56.4237C129.008 57.1612 128.752 57.3841 128.005 57.3794C122.518 57.3486 117.031 57.3414 111.541 57.3841C110.597 57.3913 110.517 57.0213 110.659 56.2649C112.013 49.0417 113.355 41.8186 114.692 34.5931C114.775 34.1426 115.053 33.8153 115.302 33.4643C118.638 28.7833 121.973 24.0999 125.309 19.4189C129.347 13.7513 133.398 8.0933 137.408 2.40681C137.889 1.72623 138.37 1.42744 139.226 1.43218C145.11 1.47013 150.991 1.45353 156.874 1.45353C157.22 1.45353 157.566 1.45353 158.245 1.45353H158.247Z" fill="#0192FC"/>
<path d="M112.482 28.6957C111.119 25.4635 109.893 22.5491 108.662 19.6347C106.267 13.9554 103.889 8.27125 101.463 2.6061C101.081 1.71447 101.098 1.42042 102.205 1.42991C107.569 1.47734 112.933 1.46311 118.297 1.43702C119.015 1.43465 119.402 1.58879 119.684 2.33102C120.882 5.48728 122.162 8.61272 123.421 11.7453C123.632 12.2717 123.768 12.7128 123.367 13.2677C119.826 18.1811 116.317 23.1206 112.802 28.053C112.712 28.1787 112.66 28.3328 112.48 28.6933L112.482 28.6957Z" fill="#0192FC"/>
</svg>
