<svg width="175" height="115" viewBox="0 0 175 115" fill="none" xmlns="http://www.w3.org/2000/svg">
<path d="M0 40.51H25C25 40.51 25.23 23.46 43.98 23.46C62.73 23.46 63.64 40.51 63.64 40.51C63.64 40.51 65.91 59.15 4.32 101.42L0 113.92H87.73V91.65H53.41C53.41 91.65 89.09 66.65 89.09 41.42C89.09 16.19 67.73 0 43.98 0C20.23 0 0 18.24 0 40.51Z" fill="black"/>
<path d="M37.1702 92.1401V94.5301C35.5002 93.7101 33.9702 93.3001 32.5702 93.3001C30.7702 93.3001 29.2602 93.8801 28.0302 95.0401C26.8002 96.2001 26.1802 97.6301 26.1802 99.3201C26.1802 101.01 26.8102 102.48 28.0702 103.63C29.3302 104.78 30.9102 105.36 32.8002 105.36C34.1802 105.36 35.6302 104.93 37.1702 104.06V106.48C35.7702 107.23 34.2502 107.6 32.6102 107.6C30.2102 107.6 28.1602 106.79 26.4602 105.17C24.7602 103.55 23.9102 101.59 23.9102 99.3001C23.9102 97.0101 24.7502 95.1201 26.4202 93.5201C28.0902 91.9201 30.1102 91.1201 32.4602 91.1201C33.9702 91.1201 35.5402 91.4601 37.1602 92.1401H37.1702Z" fill="white"/>
<path d="M39.5103 91.6101H48.0903V93.7201H41.6003V97.5801H48.0903V99.6701H41.6003V104.99H48.0903V107.08H39.5103V91.6001V91.6101Z" fill="white"/>
<path d="M50.4602 90.99L61.9002 102.75V91.61H64.0102V107.8L52.5702 96.09V107.08H50.4602V90.98V90.99Z" fill="white"/>
<path d="M66.2302 91.6099H75.6902V93.7199H72.0002V107.08H69.9102V93.7199H66.2302V91.6099Z" fill="white"/>
<path d="M87.5301 93.3301L85.8201 94.7001C85.3701 94.2301 84.9601 93.8801 84.5901 93.6501C84.2201 93.4201 83.6901 93.3001 83.0001 93.3001C82.2401 93.3001 81.6201 93.4701 81.1501 93.8101C80.6801 94.1501 80.4401 94.6001 80.4401 95.1401C80.4401 95.6101 80.6501 96.0201 81.0601 96.3801C81.4701 96.7401 82.1801 97.1301 83.1701 97.5601C84.1701 97.9901 84.9401 98.3901 85.4901 98.7501C86.0401 99.1101 86.5001 99.5301 86.8501 99.9701C87.2101 100.42 87.4701 100.89 87.6401 101.38C87.8101 101.87 87.9001 102.4 87.9001 102.95C87.9001 104.24 87.4301 105.33 86.5001 106.24C85.5701 107.15 84.4301 107.6 83.1001 107.6C81.7701 107.6 80.6601 107.25 79.6701 106.54C78.6801 105.83 77.9201 104.77 77.3801 103.35L79.4901 102.75C80.2601 104.49 81.4401 105.36 83.0301 105.36C83.8001 105.36 84.4401 105.13 84.9501 104.67C85.4601 104.21 85.7201 103.63 85.7201 102.93C85.7201 102.51 85.5901 102.09 85.3201 101.66C85.0501 101.24 84.7201 100.89 84.3201 100.61C83.9201 100.34 83.2901 100.02 82.4201 99.6601C81.5501 99.3101 80.8901 98.9801 80.4201 98.6801C79.9501 98.3801 79.5501 98.0301 79.2101 97.6201C78.8701 97.2101 78.6201 96.8001 78.4601 96.4001C78.3001 96.0001 78.2201 95.5601 78.2201 95.1001C78.2201 93.9901 78.6701 93.0501 79.5601 92.2701C80.4501 91.4901 81.5301 91.1001 82.8001 91.1001C83.6401 91.1001 84.5001 91.2801 85.3601 91.6501C86.2301 92.0101 86.9501 92.5701 87.5201 93.3201L87.5301 93.3301Z" fill="white"/>
<path d="M101.06 61.6797H97.7V60.7197H105.53V61.6797H102.16V70.9197H101.06V61.6797Z" fill="black"/>
<path d="M107.19 60.7295H108.29V65.1695H113.84V60.7295H114.94V70.9295H113.84V66.1395H108.29V70.9295H107.19V60.7295Z" fill="black"/>
<path d="M117.28 60.7295H124.08V61.6895H118.38V65.1795H123.74V66.1395H118.38V69.9695H124.34V70.9295H117.29V60.7295H117.28Z" fill="black"/>
<path d="M101.06 76.0899H97.7V75.1299H105.53V76.0899H102.16V85.3299H101.06V76.0899Z" fill="black"/>
<path d="M107.19 75.1396H108.29V79.5797H113.84V75.1396H114.94V85.3396H113.84V80.5497H108.29V85.3396H107.19V75.1396Z" fill="black"/>
<path d="M116.88 80.2397C116.88 77.1297 118.52 74.9497 121.45 74.9497C124.38 74.9497 126.03 77.1297 126.03 80.2397C126.03 83.3497 124.39 85.5297 121.45 85.5297C118.51 85.5297 116.88 83.3297 116.88 80.2397ZM124.91 80.2297C124.91 77.7997 123.66 75.9297 121.45 75.9297C119.24 75.9297 117.99 77.7897 117.99 80.2297C117.99 82.6697 119.25 84.5397 121.45 84.5397C123.65 84.5397 124.91 82.6797 124.91 80.2297Z" fill="black"/>
<path d="M127.95 81.7999V75.1299H129.05V81.8499C129.05 83.4099 130.18 84.5299 131.75 84.5299C133.32 84.5299 134.45 83.4299 134.45 81.8799V75.1299H135.55V81.8299C135.55 83.9599 133.92 85.5199 131.75 85.5199C129.58 85.5199 127.95 83.9499 127.95 81.7999Z" fill="black"/>
<path d="M137.47 80.2097C137.47 77.3597 139.09 74.9497 142.14 74.9497C144.22 74.9497 145.84 76.0697 146.31 78.0297H145.17C144.69 76.5697 143.49 75.9197 142.14 75.9197C139.77 75.9197 138.57 77.8997 138.57 80.1997C138.57 82.7197 139.98 84.5597 141.98 84.5597C143.98 84.5597 145.36 82.8897 145.38 80.9597H142.19V80.0197H146.41V85.3397H145.66L145.46 83.0897H145.55C144.94 84.6097 143.55 85.5297 141.9 85.5297C139.41 85.5297 137.46 83.3697 137.46 80.2197L137.47 80.2097Z" fill="black"/>
<path d="M148.66 75.1396H149.76V79.5797H155.31V75.1396H156.41V85.3396H155.31V80.5497H149.76V85.3396H148.66V75.1396Z" fill="black"/>
<path d="M161.43 76.0899H158.07V75.1299H165.9V76.0899H162.53V85.3299H161.43V76.0899Z" fill="black"/>
<path d="M167.01 82.1599H168.1C168.2 83.6599 169.3 84.5599 170.9 84.5599C172.27 84.5599 173.39 83.8899 173.39 82.6399C173.39 81.3899 172.23 80.9799 170.65 80.5299C169.26 80.1499 167.31 79.6399 167.31 77.5699C167.31 75.6799 168.92 74.9399 170.72 74.9399C172.82 74.9399 174.08 75.9599 174.21 77.8699H173.12C173 76.5699 172.1 75.8999 170.67 75.8999C169.37 75.8999 168.4 76.4499 168.4 77.5399C168.4 78.7699 169.62 79.0999 170.92 79.4699C173.08 80.0999 174.48 80.6799 174.48 82.5599C174.48 84.6699 172.73 85.5099 170.89 85.5099C168.56 85.5099 167.08 84.2099 167 82.1499L167.01 82.1599Z" fill="black"/>
<path d="M101.06 90.4995H97.7V89.5396H105.53V90.4995H102.16V99.7395H101.06V90.4995Z" fill="black"/>
<path d="M107.19 89.5498H108.29V93.9898H113.84V89.5498H114.94V99.7498H113.84V94.9598H108.29V99.7498H107.19V89.5498Z" fill="black"/>
<path d="M120.21 89.5498H121.28L120.29 92.3498L117.63 99.7498H116.48L120.21 89.5498ZM118.49 95.7498H123.45V96.6898H118.49V95.7498ZM121.63 92.3398L120.64 89.5498H121.71L125.45 99.7498H124.31L121.64 92.3498L121.63 92.3398Z" fill="black"/>
<path d="M128.82 90.4995H125.46V89.5396H133.29V90.4995H129.92V99.7395H128.82V90.4995Z" fill="black"/>
<path d="M98.3899 103.96H100.08L102.86 111.84C102.95 112.13 103.17 112.83 103.23 113.16H103C103.06 112.84 103.27 112.13 103.37 111.84L106.15 103.96H107.84V114.16H106.79V107.07C106.79 106.65 106.83 105.32 106.83 104.89C106.69 105.32 106.52 105.92 106.36 106.34L103.57 114.16H102.63L99.8399 106.34C99.7199 105.99 99.4999 105.29 99.3799 104.89C99.3799 105.31 99.4199 106.64 99.4199 107.07V114.16H98.3699V103.96H98.3899Z" fill="black"/>
<path d="M113.13 103.96H114.2L113.21 106.76L110.55 114.16H109.4L113.13 103.96ZM111.41 110.16H116.37V111.1H111.41V110.16ZM114.55 106.75L113.56 103.96H114.63L118.37 114.16H117.23L114.56 106.76L114.55 106.75Z" fill="black"/>
<path d="M121.73 104.91H118.37V103.95H126.2V104.91H122.83V114.15H121.73V104.91Z" fill="black"/>
<path d="M130.89 104.91H127.53V103.95H135.36V104.91H131.99V114.15H130.89V104.91Z" fill="black"/>
<path d="M137.02 103.96H143.82V104.92H138.12V108.41H143.48V109.37H138.12V113.2H144.08V114.16H137.03V103.96H137.02Z" fill="black"/>
<path d="M146 103.96H150.19C151.97 103.96 153.25 105.2 153.25 106.83C153.25 107.99 152.61 108.96 151.55 109.37V109.22C152.68 109.55 153.11 110.36 153.11 111.39V113.03C153.11 113.46 153.21 113.82 153.42 114.16H152.25C152.09 113.9 152.02 113.53 152.02 113.05V111.39C152.02 110.45 151.42 109.77 150.16 109.77H147.1V114.16H146V103.96ZM150.16 108.81C151.36 108.81 152.16 107.94 152.16 106.85C152.16 105.76 151.33 104.91 150.16 104.91H147.1V108.81H150.16Z" fill="black"/>
</svg>
