<svg width="169" height="69" viewBox="0 0 169 69" fill="none" xmlns="http://www.w3.org/2000/svg">
<path d="M109.145 56.811C110.411 58.1939 111.738 59.5061 113.205 60.6844C124.49 69.7503 140.354 70.851 152.482 63.3971C165.008 55.6998 171.361 41.3495 168.119 27.0168C165.132 13.8094 156.919 4.94094 143.874 1.3851C130.505 -2.2554 118.81 1.33571 109.261 11.5058C108.947 11.2483 108.602 11.0226 108.323 10.7298C102.735 4.95505 96.022 1.47329 88.0108 0.372674C81.393 -0.537452 75.1244 0.474975 69.0781 3.14891C65.1377 4.89155 61.8641 7.61135 58.6716 10.4334C49.1541 1.10289 37.8516 -1.99789 25.0075 1.33571C9.42958 5.38189 -0.913392 20.1661 0.0637585 36.4673C1.01269 52.3345 13.3135 65.7571 29.0925 67.9336C40.4762 69.5034 50.3112 66.1381 58.5552 58.1268C59.1267 58.1939 59.4689 58.6101 59.8604 58.9629C64.7638 63.3936 70.3339 66.4626 76.9129 67.6902C84.1692 69.0448 91.0975 68.1805 97.8211 65.2032C102.231 63.2489 105.829 60.2222 109.148 56.8146L109.145 56.811Z" fill="#FEFEFE"/>
<path d="M58.6716 10.4367C61.8641 7.61461 65.1412 4.89482 69.0781 3.15218C75.1244 0.481769 81.393 -0.530658 88.0108 0.379468C96.022 1.48008 102.735 4.96184 108.323 10.7366C108.601 11.0258 108.947 11.2551 109.261 11.5091C109.339 11.7278 109.356 11.9924 109.497 12.1582C113.868 17.372 116.486 23.3196 117.304 30.0997C117.925 35.2429 117.389 40.2169 115.773 45.1097C114.341 49.4522 111.992 53.2691 109.145 56.8073C105.825 60.2185 102.231 63.2416 97.8176 65.1959C91.0939 68.1768 84.1657 69.0375 76.9094 67.6829C70.3339 66.4553 64.7638 63.3863 59.8569 58.9556C59.4653 58.6028 59.1231 58.1866 58.5516 58.1195C58.7315 57.4775 58.2377 57.1671 57.8955 56.7826C47.609 45.3037 46.4272 27.8914 55.0981 15.1849C56.2128 13.5481 57.4757 12.0136 58.6716 10.4297V10.4367ZM91.6195 34.6961C91.8947 35.0983 92.0146 35.19 92.0146 35.2817C92.0464 37.9804 92.0746 40.679 92.0816 43.3776C92.0922 48.7925 92.0852 48.7713 97.6059 48.3833C98.7383 48.3022 99.3521 47.967 99.2357 46.6971C99.1404 45.6494 99.218 44.5841 99.218 43.5293C99.2074 36.2483 99.1722 28.9638 99.218 21.6828C99.2251 20.4375 98.9041 20.0212 97.6376 20.187C96.5406 20.3281 95.4047 20.2964 94.297 20.2047C93.1893 20.113 92.6143 20.6033 92.0852 21.517C89.6511 25.7078 87.1571 29.8598 84.6666 34.0188C83.4778 36.0014 83.4601 35.9837 82.222 33.9165C79.7315 29.7575 77.2304 25.6019 74.7222 21.4499C74.3765 20.8749 74.179 20.1412 73.2336 20.18C71.7097 20.24 70.1787 20.2364 68.6547 20.2117C67.8293 20.1976 67.5224 20.5116 67.5224 21.3512C67.5435 29.9268 67.54 38.4989 67.5259 47.0746C67.5259 47.9282 67.7552 48.4045 68.7112 48.3798C70.2386 48.341 71.7661 48.3727 73.29 48.3551C74.4083 48.341 74.9374 47.8859 74.9057 46.6336C74.821 43.2295 74.8669 39.8253 74.8775 36.4211C74.8775 36.0084 74.6164 35.4687 75.329 35.2076C77.1563 38.1779 78.973 41.1517 80.8144 44.1184C82.1443 46.2632 84.783 46.1962 86.0671 44.0196C87.8697 40.9647 89.697 37.9239 91.6195 34.7032V34.6961Z" fill="#E7AB51"/>
<path d="M109.145 56.8109C111.992 53.2727 114.341 49.4523 115.773 45.1133C117.389 40.2205 117.925 35.2465 117.304 30.1033C116.486 23.3197 113.868 17.3721 109.498 12.1618C109.36 11.996 109.339 11.7314 109.261 11.5127C118.81 1.33907 130.505 -2.25204 143.874 1.38846C156.919 4.94077 165.132 13.8127 168.119 27.0201C171.361 41.3528 165.012 55.7032 152.482 63.4005C140.35 70.8543 124.486 69.7502 113.205 60.6877C111.738 59.5095 110.411 58.1937 109.145 56.8144V56.8109ZM134.822 20.1166C132.297 20.1166 129.774 20.1166 127.249 20.1166C122.084 20.1166 122.112 20.1166 122.366 25.401C122.412 26.3393 122.719 26.6109 123.612 26.5862C125.488 26.5333 127.376 26.6603 129.245 26.5404C130.61 26.4522 131.037 26.8332 131.016 28.2583C130.931 34.4211 131.005 40.5874 130.953 46.7501C130.942 47.886 131.238 48.3093 132.42 48.2352C134 48.1365 135.595 48.1259 137.172 48.2352C138.406 48.3199 138.629 47.8049 138.618 46.7113C138.576 41.1941 138.6 35.6769 138.597 30.1562C138.597 26.5721 138.597 26.6145 142.117 26.5545C143.74 26.5263 145.864 27.2918 146.848 26.2194C147.804 25.1752 147.003 23.0798 147.148 21.4536C147.25 20.3106 146.767 20.0848 145.733 20.0989C142.093 20.1519 138.452 20.1201 134.812 20.1201L134.822 20.1166Z" fill="#3059A3"/>
<path d="M58.6716 10.4367C57.4758 12.0206 56.2164 13.5551 55.0981 15.192C46.4272 27.8984 47.609 45.3108 57.8955 56.7896C58.2412 57.1741 58.7316 57.4846 58.5517 58.1266C50.3076 66.1378 40.4726 69.4996 29.089 67.9334C13.3135 65.7568 1.01269 52.3343 0.0637585 36.467C-0.913392 20.1659 9.42958 5.38165 25.0075 1.33547C37.8516 -1.99813 49.1541 1.10265 58.6716 10.4367ZM23.3637 34.0294H23.3531C23.3531 38.3155 23.3778 42.6016 23.3355 46.8876C23.3249 47.8471 23.5683 48.2669 24.6019 48.2246C26.2422 48.1575 27.8931 48.154 29.5335 48.2316C30.6024 48.281 30.9798 47.9494 30.9375 46.8453C30.8563 44.7358 31.0045 42.6157 30.8846 40.5061C30.8034 39.0245 31.1385 38.446 32.7789 38.5272C35.8832 38.6788 39.0016 38.5483 42.113 38.5871C42.9737 38.5977 43.4358 38.4178 43.39 37.4371C43.3265 36.0896 43.3088 34.735 43.3829 33.3874C43.4429 32.3044 42.9278 32.1316 42.0071 32.1492C39.7177 32.1951 37.4283 32.1633 35.1389 32.1633C30.8246 32.1633 30.8634 32.1633 30.8951 27.8491C30.9022 26.7731 31.1809 26.438 32.2744 26.4592C35.9149 26.5227 39.5554 26.4345 43.1924 26.5121C44.4976 26.5403 45.1573 26.2793 44.9844 24.8082C44.861 23.7676 44.8892 22.6917 44.9774 21.644C45.0691 20.5328 44.7622 20.113 43.5558 20.1236C37.2731 20.1835 30.9904 20.18 24.7077 20.1306C23.6 20.12 23.3319 20.4622 23.346 21.5311C23.406 25.6972 23.3707 29.8668 23.3707 34.0365L23.3637 34.0294Z" fill="#9B372B"/>
<path d="M91.6196 34.6963C89.6971 37.917 87.8698 40.9578 86.0671 44.0127C84.7831 46.1893 82.1444 46.2598 80.8145 44.1115C78.9766 41.1483 77.1564 38.171 75.3291 35.2007C74.6165 35.4618 74.8775 35.998 74.8775 36.4142C74.867 39.8184 74.8246 43.2261 74.9058 46.6267C74.9375 47.879 74.4119 48.3341 73.2901 48.3482C71.7627 48.3658 70.2352 48.3305 68.7113 48.3729C67.7553 48.3976 67.5225 47.9213 67.526 47.0676C67.5401 38.492 67.5436 29.9199 67.5225 21.3443C67.5225 20.5082 67.8294 20.1907 68.6548 20.2048C70.1823 20.2295 71.7097 20.2331 73.2337 20.1731C74.1791 20.1343 74.3731 20.868 74.7223 21.443C77.2305 25.5915 79.728 29.7506 82.222 33.9096C83.4602 35.9803 83.4814 35.9945 84.6667 34.0119C87.1572 29.8564 89.6512 25.7009 92.0853 21.5101C92.6179 20.5964 93.1929 20.1061 94.2971 20.1978C95.4048 20.2895 96.5406 20.3212 97.6377 20.1801C98.9042 20.0179 99.2287 20.4306 99.2181 21.6758C99.1723 28.9569 99.2111 36.2379 99.2181 43.5224C99.2181 44.5807 99.144 45.6425 99.2357 46.6902C99.3486 47.9637 98.7348 48.2953 97.606 48.3764C92.0853 48.768 92.0923 48.7856 92.0817 43.3707C92.0747 40.6721 92.0465 37.9734 92.0147 35.2748C92.0147 35.1796 91.8948 35.0879 91.6196 34.6892V34.6963Z" fill="#FCFBF6"/>
<path d="M134.819 20.1165C138.459 20.1165 142.1 20.1482 145.74 20.0953C146.774 20.0812 147.257 20.307 147.155 21.4499C147.01 23.0726 147.811 25.1716 146.855 26.2158C145.871 27.2917 143.747 26.5227 142.125 26.5509C138.604 26.6108 138.604 26.5685 138.604 30.1526C138.604 35.6698 138.579 41.1905 138.625 46.7077C138.632 47.8012 138.414 48.3163 137.179 48.2316C135.602 48.1223 134.004 48.1364 132.427 48.2316C131.245 48.3057 130.949 47.8824 130.96 46.7465C131.009 40.5837 130.939 34.4175 131.023 28.2547C131.041 26.8296 130.617 26.4521 129.252 26.5368C127.383 26.6567 125.495 26.5297 123.619 26.5826C122.726 26.6073 122.419 26.3392 122.373 25.3973C122.119 20.113 122.091 20.113 127.256 20.113C129.781 20.113 132.304 20.113 134.829 20.113L134.819 20.1165Z" fill="#F8FAFA"/>
<path d="M23.3637 34.0298C23.3637 29.8602 23.399 25.6941 23.339 21.5244C23.3249 20.4591 23.593 20.1169 24.7007 20.1239C30.9834 20.1733 37.2661 20.1769 43.5488 20.1169C44.7587 20.1063 45.0621 20.5261 44.9704 21.6373C44.8822 22.685 44.854 23.7609 44.9774 24.8016C45.1538 26.2761 44.4906 26.5336 43.1854 26.5054C39.5484 26.4278 35.9044 26.516 32.2674 26.4525C31.1739 26.4313 30.8952 26.7665 30.8881 27.8424C30.8599 32.1567 30.8211 32.1567 35.1319 32.1567C37.4213 32.1567 39.7107 32.1884 42.0001 32.1425C42.9208 32.1249 43.4359 32.3013 43.3759 33.3807C43.3018 34.7283 43.323 36.0829 43.383 37.4304C43.4288 38.4111 42.9667 38.591 42.106 38.5804C38.9946 38.5416 35.8762 38.6722 32.7719 38.5205C31.1315 38.4393 30.7929 39.0179 30.8776 40.4995C30.994 42.6055 30.8493 44.7256 30.9305 46.8386C30.9728 47.9392 30.5918 48.2743 29.5265 48.225C27.8861 48.1473 26.2387 48.1509 24.5949 48.2179C23.5613 48.2602 23.3179 47.8404 23.3285 46.8809C23.3708 42.5949 23.3461 38.3088 23.3461 34.0228H23.3567L23.3637 34.0298Z" fill="#FCFBF6"/>
</svg>
