<svg width="354" height="46" viewBox="0 0 354 46" fill="none" xmlns="http://www.w3.org/2000/svg">
<path d="M24.08 13.033C24.9288 14.1965 25.8956 15.2645 26.8006 16.3774C27.8348 17.6421 28.8972 18.8844 29.9202 20.1603C30.2012 20.5088 30.3193 20.4695 30.5778 20.1491C35.3163 14.1572 40.0603 8.1765 44.8044 2.19584C45.2484 1.63937 45.6981 1.08852 46.1253 0.520804C46.2771 0.324071 46.4401 0.239757 46.693 0.239757C51.083 0.245378 55.4729 0.239757 59.8628 0.250999C60.0315 0.250999 60.3575 0.138581 60.2001 0.543287C59.7223 0.829954 59.52 1.3527 59.222 1.77989C56.4116 5.75388 53.6292 9.75036 50.8356 13.7412C48.739 16.7372 46.6368 19.7331 44.5346 22.7347C41.9658 26.4051 39.3971 30.0756 36.8283 33.7517C34.6137 36.9219 32.3934 40.0921 30.1844 43.2735C29.937 43.6277 29.8246 43.5771 29.611 43.2623C28.0316 40.9633 26.4408 38.67 24.8557 36.3767C23.1414 33.8978 21.427 31.4134 19.7182 28.9289C17.6329 25.8993 15.5531 22.8696 13.4678 19.8455C11.5342 17.0463 9.59494 14.2527 7.66134 11.4535C5.58722 8.42382 3.52434 5.39976 1.43336 2.39819C0.989305 1.76865 0.623946 1.07727 0.0730953 0.526424C0.0337489 0.419627 -0.101153 0.279104 0.140546 0.245378C0.252965 0.228516 0.365383 0.239757 0.477802 0.239757C9.56121 0.239757 18.6502 0.239757 27.7336 0.228516C28.1608 0.228516 28.3182 0.31845 28.3014 0.779366C28.2564 1.79675 28.2733 2.81414 28.262 3.83153C21.2921 3.83153 14.3221 3.83153 7.35219 3.83153C7.22291 3.83153 7.09363 3.83153 6.96434 3.83153C6.75637 3.83153 6.63271 3.87087 6.80134 4.10695C7.06552 4.47231 7.26787 4.88264 7.58265 5.20865C8.84173 7.05231 10.0952 8.9016 11.3599 10.7396C17.4811 19.6263 23.6079 28.5074 29.7291 37.394C29.9652 37.7369 30.0663 37.7988 30.3418 37.4109C37.7558 26.8604 45.1866 16.3212 52.6118 5.78199C52.7411 5.5965 52.9041 5.43349 52.9603 5.20865C53.3594 4.83205 53.5843 4.33741 53.9721 3.83715C53.7192 3.83715 53.5786 3.83715 53.4381 3.83715C51.8643 3.83715 50.296 3.85401 48.7222 3.82591C48.3118 3.82028 48.0589 3.98329 47.8341 4.28682C47.4294 4.82643 47.0078 5.36042 46.5918 5.88878C45.1529 7.70434 43.7083 9.5199 42.2693 11.3355C40.8922 13.0779 39.5151 14.8204 38.138 16.5629C36.7327 18.3447 35.3219 20.121 33.911 21.9028C32.7812 23.3305 31.6571 24.7582 30.5329 26.1859C30.3586 26.4051 30.2237 26.3939 30.0438 26.1634C29.5998 25.5901 29.1276 25.0393 28.6667 24.4772C27.5819 23.1394 26.497 21.8016 25.4066 20.4695C24.2599 19.0586 23.1133 17.6478 21.961 16.2369C20.8536 14.8766 19.7407 13.522 18.6278 12.1674C17.7284 11.0713 16.8291 9.98081 15.9297 8.89036C16.0253 8.688 16.2164 8.78356 16.3569 8.78356C20.1735 8.77794 23.9957 8.78356 27.8123 8.77232C28.2002 8.77232 28.3014 8.87911 28.2957 9.25571C28.2845 10.127 28.2395 10.9982 28.3295 11.8694C28.3463 12.01 28.3688 12.1617 28.2789 12.291C26.9299 12.291 25.5808 12.2854 24.2262 12.291C24.0014 12.291 23.6472 12.1505 23.5742 12.3866C23.518 12.5608 23.7821 12.8194 23.9957 12.9655C24.0238 12.9824 24.0407 13.0105 24.0688 13.0274L24.08 13.033Z" fill="#E48A48"/>
<path d="M306.953 22.9317C306.942 31.3687 300.264 38.0688 291.878 38.0576C283.458 38.0463 276.842 31.3687 276.853 22.9036C276.864 14.4048 283.497 7.68775 291.889 7.68213C300.287 7.68213 306.964 14.4385 306.953 22.9373V22.9317ZM283.548 22.8642C283.531 27.4678 287.252 31.2844 291.788 31.3125C296.47 31.3406 300.27 27.5746 300.275 22.898C300.275 18.2495 296.532 14.4329 291.945 14.416C287.314 14.3991 283.57 18.1651 283.553 22.8642H283.548Z" fill="#010101"/>
<path d="M228.457 23.7858V23.2574C228.457 18.5977 228.457 13.9323 228.457 9.27259C228.457 8.30017 228.659 8.09219 229.609 8.09219C231.082 8.09219 232.56 8.09219 234.033 8.09219C234.752 8.09219 235.045 8.37324 235.045 9.07585C235.045 18.4291 235.045 27.7879 235.045 37.1411C235.045 37.7594 234.786 38.0067 234.173 38.0573C233.572 38.1023 233.117 37.9393 232.672 37.484C227.484 32.1835 222.268 26.9054 217.063 21.6218C216.906 21.4644 216.788 21.2676 216.636 21.0653C216.439 21.3407 216.501 21.5262 216.501 21.6948C216.501 26.63 216.501 31.5708 216.501 36.506C216.501 37.4503 216.304 37.6414 215.366 37.6414C213.904 37.6414 212.448 37.6414 210.987 37.6414C210.194 37.6414 209.93 37.3884 209.925 36.6071C209.908 32.2228 209.897 27.8329 209.885 23.4486C209.874 18.5752 209.874 13.7075 209.868 8.83415C209.868 7.9067 210.088 7.70997 211.004 7.67062C211.51 7.64814 211.869 7.79991 212.235 8.15964C217.513 13.3028 222.808 18.4234 228.097 23.5553C228.187 23.6397 228.243 23.7633 228.316 23.8701C228.361 23.842 228.412 23.8139 228.457 23.7858Z" fill="#010101"/>
<path d="M98.5179 18.2663C98.5179 15.2703 98.5179 12.28 98.5179 9.28406C98.5179 8.33975 98.7596 8.09243 99.6815 8.09243C101.188 8.09243 102.694 8.09243 104.201 8.09243C104.971 8.09243 105.212 8.33413 105.212 9.10419C105.212 14.7026 105.212 20.3011 105.212 25.8995C105.212 27.3104 105.617 28.5751 106.578 29.6318C108.006 31.2113 110.249 31.7453 112.267 30.9864C114.189 30.267 115.594 28.3558 115.606 26.2873C115.634 20.6102 115.617 14.9275 115.622 9.25034C115.622 9.10419 115.606 8.95805 115.628 8.81191C115.701 8.3791 115.926 8.09243 116.398 8.09243C118.101 8.08681 119.799 8.08119 121.502 8.09243C122.025 8.09243 122.317 8.44655 122.317 9.0255C122.317 10.3352 122.317 11.6449 122.317 12.9601C122.317 17.3445 122.272 21.7288 122.328 26.1131C122.407 31.9083 118.157 36.8772 112.447 37.8889C105.831 39.0637 99.5016 34.4714 98.6135 27.8162C98.5236 27.1305 98.5179 26.4279 98.5123 25.7309C98.5011 23.2408 98.5123 20.7451 98.5123 18.2551L98.5179 18.2663Z" fill="#010101"/>
<path d="M253.385 22.8355C253.385 18.3219 253.385 13.8083 253.385 9.29468C253.385 8.28291 253.571 8.09742 254.56 8.09742C257.832 8.09742 261.103 8.12553 264.38 8.0918C269.411 8.04121 272.693 11.9028 273.514 14.9606C275.015 20.5534 271.17 26.3092 265.409 26.9106C263.852 27.0737 262.267 26.9612 260.698 26.9669C259.968 26.9669 259.968 26.9669 259.968 27.7201C259.968 30.6486 259.968 33.5771 259.968 36.5056C259.968 37.4161 259.732 37.6466 258.821 37.6466C257.365 37.6466 255.904 37.6466 254.448 37.6466C253.616 37.6466 253.391 37.4161 253.391 36.5786C253.391 31.9976 253.391 27.4221 253.391 22.8411L253.385 22.8355ZM259.968 17.4787C259.968 18.4512 259.973 19.418 259.968 20.3904C259.968 20.6489 260.013 20.7614 260.31 20.7614C261.592 20.7445 262.874 20.7782 264.15 20.7389C265.87 20.6883 267.235 19.2044 267.235 17.4394C267.235 15.77 265.87 14.3704 264.155 14.3198C262.874 14.2861 261.598 14.3198 260.316 14.2973C260.029 14.2973 259.968 14.3985 259.968 14.6627C259.979 15.6014 259.968 16.54 259.968 17.4787Z" fill="black"/>
<path d="M202.449 37.6412C201.735 37.6412 201.021 37.6187 200.313 37.6468C199.56 37.6805 199.087 37.3376 198.806 36.6688C198.34 35.5671 197.856 34.4766 197.412 33.3693C197.283 33.0376 197.109 32.9533 196.772 32.9533C193.27 32.9646 189.774 32.9646 186.272 32.9533C185.951 32.9533 185.788 33.032 185.67 33.3412C185.254 34.4091 184.793 35.4546 184.372 36.5226C184.068 37.2927 183.534 37.658 182.697 37.6412C181.303 37.6187 179.909 37.6356 178.515 37.6356C177.503 37.6356 177.205 37.1634 177.627 36.2472C180.533 29.9518 183.444 23.6563 186.35 17.3609C187.733 14.3762 189.122 11.3915 190.487 8.40114C190.707 7.92336 190.982 7.65918 191.544 7.65918C192.106 7.65918 192.387 7.91212 192.607 8.39552C196.884 17.6644 201.167 26.9333 205.45 36.2022C205.495 36.3034 205.546 36.4046 205.585 36.5114C205.821 37.1409 205.507 37.6243 204.838 37.6356C204.045 37.6468 203.253 37.6356 202.454 37.6356L202.449 37.6412ZM194.726 27.4954C193.652 25.1515 192.607 22.8806 191.522 20.5255C190.448 22.8919 189.414 25.174 188.363 27.4954H194.726Z" fill="#010101"/>
<path d="M165.553 7.68768C169.049 7.63709 172.354 8.89055 175.159 11.4537C175.732 11.9764 175.749 12.3755 175.21 12.9264C174.192 13.9719 173.175 15.0117 172.152 16.0516C171.674 16.535 171.314 16.5462 170.814 16.0966C168.285 13.8594 165.362 13.258 162.231 14.4159C159.083 15.5795 157.33 18.0246 156.846 21.3128C156.284 25.1294 158.015 28.7268 161.281 30.3681C164.558 32.0094 167.711 31.526 170.657 29.4575C171.404 28.9348 171.663 28.9291 172.309 29.598C173.293 30.6267 174.277 31.6609 175.255 32.6952C175.738 33.2123 175.727 33.617 175.21 34.1116C172.208 36.9727 168.611 38.2037 164.496 38.035C157.234 37.7315 151.281 32.3579 150.225 25.1744C149.05 17.1758 153.946 9.91918 161.781 8.05304C162.922 7.78323 164.08 7.67081 165.553 7.68768Z" fill="#010101"/>
<path d="M320.898 38.0517C317.975 38.0179 315.44 37.4952 313.147 36.0675C312.484 35.6572 311.854 35.2019 311.32 34.6285C311.073 34.3587 311 34.0721 311.174 33.746C311.86 32.4813 312.529 31.2166 313.243 29.9688C313.496 29.5247 314.164 29.446 314.67 29.7664C315.643 30.3791 316.621 30.9749 317.7 31.3909C318.903 31.8574 320.139 32.2003 321.438 31.9136C323.27 31.5145 324.029 29.7383 323.079 28.1195C322.658 27.4 322.028 26.8998 321.342 26.4557C320.505 25.9217 319.589 25.562 318.678 25.1966C316.846 24.4603 315.165 23.4822 313.709 22.1332C308.931 17.7039 311.09 10.6609 316.07 8.60366C319.92 7.01294 323.63 7.47385 327.182 9.54797C327.851 9.94144 328.487 10.3911 329.094 10.8801C329.521 11.223 329.673 11.8244 329.392 12.3078C328.734 13.4545 328.065 14.6012 327.368 15.7254C326.974 16.3605 326.485 16.4111 325.85 16.0008C324.389 15.0452 322.916 14.1009 321.146 13.7918C320.398 13.6625 319.662 13.685 318.965 14.0447C317.711 14.6911 317.368 15.9614 318.116 17.1531C318.459 17.6983 318.953 18.0918 319.487 18.4347C320.471 19.0698 321.539 19.5307 322.624 19.9523C324.158 20.5481 325.564 21.3632 326.84 22.3974C332.421 26.9166 330.454 35.022 324.608 37.3434C323.338 37.8493 322.101 38.0742 320.876 38.0517H320.898Z" fill="#010101"/>
<path d="M70.0029 8.09231C70.8292 8.09231 71.6555 8.12042 72.4818 8.08107C73.0888 8.05297 73.4317 8.29467 73.679 8.83989C75.8487 13.702 78.0296 18.5585 80.2105 23.4149C80.2724 23.5498 80.3229 23.6847 80.396 23.8084C80.5084 24.022 80.6377 23.9883 80.7501 23.8084C80.812 23.7129 80.8457 23.6061 80.8907 23.4993C83.0884 18.6147 85.2862 13.7301 87.4671 8.83989C87.7145 8.28904 88.0573 8.06421 88.6588 8.07545C90.2945 8.10355 91.9358 8.13166 93.5715 8.06983C94.5045 8.03048 94.9092 8.58695 94.4933 9.49192C90.4181 18.2381 86.3711 26.9955 82.3184 35.7472C82.0598 36.3037 81.79 36.8546 81.5539 37.4167C81.3572 37.8832 81.0368 38.0631 80.5309 38.0574C80.0307 38.0574 79.7328 37.8663 79.5192 37.4054C76.911 31.717 74.2861 26.0287 71.6667 20.3459C69.9917 16.7092 68.3223 13.0781 66.6529 9.44133C66.2425 8.54199 66.5348 8.08669 67.5297 8.08669C68.356 8.08669 69.1823 8.08669 70.0086 8.08669L70.0029 8.09231Z" fill="#010101"/>
<path d="M347.165 25.697C347.165 29.3056 347.165 32.9143 347.165 36.5229C347.165 37.3885 346.906 37.6415 346.035 37.6415C344.562 37.6415 343.084 37.6415 341.611 37.6415C340.841 37.6415 340.572 37.366 340.572 36.5847C340.572 29.3337 340.572 22.0884 340.583 14.8374C340.583 14.3877 340.459 14.2922 340.032 14.2978C338.301 14.3203 336.564 14.309 334.833 14.309C334.012 14.309 333.765 14.0561 333.765 13.2354C333.765 11.8583 333.765 10.4868 333.765 9.10966C333.765 8.3677 334.018 8.10352 334.743 8.10352C340.836 8.10352 346.929 8.10352 353.022 8.10352C353.73 8.10352 353.994 8.3677 354 9.05907C354 10.4643 354 11.8752 354 13.2804C354 14.0392 353.736 14.309 352.983 14.309C351.184 14.309 349.385 14.3203 347.587 14.3034C347.238 14.3034 347.165 14.3989 347.165 14.7306C347.176 18.3898 347.171 22.0434 347.171 25.7026L347.165 25.697Z" fill="#010101"/>
<path d="M130.04 22.8582C130.04 18.3446 130.04 13.831 130.04 9.3174C130.04 8.28315 130.226 8.09766 131.254 8.09766C132.665 8.09766 134.076 8.09766 135.481 8.09766C136.397 8.09766 136.633 8.32811 136.633 9.23308C136.633 16.4503 136.633 23.6676 136.622 30.8849C136.622 31.3121 136.706 31.447 137.167 31.447C140.214 31.4245 143.26 31.4357 146.307 31.4357C147.156 31.4357 147.403 31.6887 147.409 32.5374C147.409 33.8808 147.409 35.2242 147.409 36.5676C147.409 37.4164 147.173 37.6525 146.307 37.6525C141.254 37.6525 136.195 37.6525 131.142 37.6525C130.276 37.6525 130.046 37.4276 130.046 36.5564C130.046 31.9922 130.046 27.428 130.046 22.8694L130.04 22.8582Z" fill="#010101"/>
<path d="M0.072998 0.526617C0.623848 1.07747 0.994829 1.76322 1.43326 2.39276C3.52424 5.39433 5.59274 8.41839 7.67248 11.4312C9.60608 14.2304 11.5453 17.024 13.4789 19.8232C15.5643 22.8473 17.644 25.8826 19.7294 28.9066C21.4381 31.3911 23.1525 33.8699 24.8669 36.3544C26.452 38.6477 28.0427 40.941 29.6222 43.24C29.8358 43.5548 29.9538 43.6054 30.1955 43.2512C32.3989 40.0698 34.6192 36.9052 36.8394 33.7294C39.4082 30.0589 41.977 26.3829 44.5457 22.7124C46.6423 19.7164 48.7446 16.7205 50.8468 13.7189C53.6404 9.72806 56.4227 5.73721 59.2332 1.7576C59.5311 1.33041 59.7278 0.813284 60.2112 0.520996C60.1157 1.22361 60.0201 1.93185 59.9302 2.63446C59.9021 2.84806 59.8178 3.02793 59.6941 3.2078C49.8687 17.1477 40.0434 31.0932 30.218 45.0331C30.1281 45.1624 30.0269 45.2916 29.9032 45.4603C29.7964 45.3254 29.6953 45.2073 29.6109 45.0893C19.9654 31.2225 10.3312 17.3444 0.691299 3.47198C0.494567 3.18531 0.354044 2.90427 0.320319 2.55015C0.258488 1.87002 0.0898608 1.20675 0.072998 0.526617Z" fill="#C97D42"/>
<path d="M15.9352 8.88441C16.8346 9.97487 17.7339 11.0653 18.6333 12.1614C19.7462 13.5161 20.8592 14.8763 21.9665 16.231C23.1188 17.6418 24.2654 19.0527 25.4121 20.4635C26.4969 21.8013 27.5818 23.1391 28.6722 24.4712C29.1275 25.0333 29.6053 25.5842 30.0494 26.1575C30.2292 26.3936 30.3641 26.3992 30.5384 26.18C31.6626 24.7523 32.7867 23.3246 33.9166 21.8968C35.3218 20.115 36.7326 18.3388 38.1435 16.557C39.5206 14.8145 40.8977 13.072 42.2749 11.3295C43.7138 9.51396 45.1584 7.6984 46.5974 5.88284C47.0189 5.35448 47.4349 4.82049 47.8396 4.28088C48.07 3.97735 48.3174 3.81434 48.7277 3.81996C50.3015 3.84245 51.8698 3.83121 53.4436 3.83121C53.5842 3.83121 53.7247 3.83121 53.9776 3.83121C53.5898 4.33147 53.3649 4.82611 52.9659 5.20271C51.7011 5.20271 50.4364 5.21395 49.1717 5.20271C48.8738 5.20271 48.6715 5.27578 48.4747 5.5231C42.5447 13.0102 36.6034 20.4916 30.6677 27.9731C30.2967 28.4396 30.3023 28.4396 29.9313 27.9787C25.3671 22.3409 20.8029 16.7031 16.2388 11.071C16.0252 10.8068 15.8959 10.5482 15.924 10.1941C15.9577 9.76128 15.9465 9.32285 15.9521 8.88441H15.9352Z" fill="#C97D42"/>
<path d="M7.58265 5.20867C7.26788 4.88266 7.06553 4.47233 6.80135 4.10697C6.63272 3.87089 6.75638 3.83154 6.96435 3.83154C7.09363 3.83154 7.22291 3.83154 7.3522 3.83154C14.3221 3.83154 21.2921 3.83154 28.262 3.83154C28.3445 4.74963 27.9304 5.20867 27.0198 5.20867C20.5389 5.20867 14.0636 5.20867 7.58265 5.20867Z" fill="#C97D42"/>
<path d="M24.0799 13.0332C24.0799 13.0332 24.035 12.9883 24.0069 12.9714C23.7933 12.8196 23.5291 12.5667 23.5853 12.3924C23.6584 12.1564 24.0125 12.2969 24.2373 12.2969C25.5864 12.2856 26.9354 12.2969 28.29 12.2969C28.29 12.3924 28.29 12.4936 28.3013 12.5835C28.3518 12.932 28.2338 13.0613 27.8572 13.0557C26.5981 13.0332 25.339 13.0445 24.0856 13.0445L24.0799 13.0332Z" fill="#C97D42"/>
</svg>
