<svg width="131" height="125" viewBox="0 0 131 125" fill="none" xmlns="http://www.w3.org/2000/svg">
<g clip-path="url(#clip0_103_106)">
<path d="M75.9701 0C77.7734 0.80604 79.6171 1.5309 81.3742 2.42392C86.5529 5.0566 88.2869 10.983 85.5184 15.8309C86.3218 17.3676 87.5586 18.7593 87.6973 20.2496C87.8534 21.8907 87.5355 24.4827 86.4778 25.1496C83.9867 26.7211 83.9462 28.8319 83.8306 31.2732C84.4549 31.6559 85.2005 32.0039 85.8189 32.5084C87.8707 34.1784 88.5817 36.3878 87.7725 38.8755C87.0096 41.2298 85.3045 42.8245 82.744 42.8361C71.3635 42.9057 59.9773 42.9057 48.5968 42.8535C45.9149 42.8419 44.1174 41.2588 43.366 38.7827C42.5684 36.1674 43.4065 33.9175 45.6433 32.2764C46.1461 31.9053 46.7356 31.6443 47.2616 31.3486C47.3078 28.9421 47.2905 26.8487 44.7358 25.3642C42.6955 24.1812 42.5684 21.1426 43.8862 18.6433C44.3486 17.7677 45.0075 16.9906 45.5855 16.1556C42.158 10.5771 45.1289 3.61848 52.2092 1.13078C53.2148 0.788644 54.2032 0.382724 55.2031 0C62.1274 0 69.0516 0 75.9701 0ZM65.4334 13.6795C70.2596 13.6795 75.0915 13.7549 79.9119 13.6157C80.9407 13.5867 82.5591 12.9836 82.8134 12.2588C83.166 11.2498 82.8307 9.64349 82.1892 8.70987C79.9235 5.43352 76.6521 3.87363 72.6409 3.89103C67.9939 3.90842 63.3527 3.89103 58.7057 3.89103C54.8505 3.89103 51.4693 5.0218 49.3019 8.39093C48.591 9.49852 48.0881 11.1048 48.3309 12.3168C48.458 12.9546 50.3712 13.5867 51.4982 13.6215C56.1394 13.7665 60.7864 13.6795 65.4334 13.6795ZM65.8033 17.5705C61.6187 17.5705 57.4341 17.5241 53.2495 17.5995C52.2092 17.6169 51.1341 17.9184 50.1458 18.2838C48.4002 18.939 46.4178 19.8959 47.1865 22.1052C48.0072 24.4653 50.1342 23.2302 51.6716 22.7953C54.5615 21.9718 57.3185 21.1832 60.3587 22.4705C63.844 23.9434 67.5488 23.7927 71.0167 22.4242C73.6812 21.3746 76.1146 21.7051 78.6461 22.5633C79.3339 22.7953 80.0795 23.178 80.7442 23.0852C81.8655 22.9345 82.9405 22.4589 84.0387 22.1168C83.5012 21.0382 83.2295 19.4957 82.3568 18.9796C80.9638 18.1504 79.1779 17.7039 77.5364 17.6227C73.635 17.4371 69.7163 17.5647 65.8033 17.5647V17.5705ZM65.8727 35.1294C60.5957 35.1294 55.3245 35.141 50.0475 35.1236C48.5852 35.1236 47.0882 35.2512 47.0651 37.0836C47.042 38.9799 48.591 39.0147 50.0244 39.0147C60.3934 39.0031 70.7624 39.0089 81.1315 39.0147C82.5591 39.0147 84.1139 38.9973 84.1081 37.101C84.1081 35.257 82.6111 35.1178 81.1488 35.1236C76.0568 35.141 70.9647 35.1294 65.8669 35.1294H65.8727ZM65.3698 31.2442C69.1961 31.2442 73.0166 31.2268 76.8428 31.25C78.4669 31.2616 79.3686 30.6005 79.5767 28.8957C79.779 27.243 79.0334 26.4486 77.5306 26.3558C75.7793 26.2456 73.924 25.9441 72.271 26.3558C67.7338 27.4981 63.3122 27.4981 58.7808 26.3442C57.2145 25.9441 55.4574 26.2224 53.7928 26.3152C52.1629 26.4022 51.3595 27.243 51.608 29.0116C51.8508 30.7397 52.8623 31.2732 54.4402 31.2558C58.0815 31.2268 61.7228 31.2442 65.3641 31.2442H65.3698Z" fill="#C2A46C"/>
<path d="M130.081 0C130.405 1.25255 131.098 2.5457 130.988 3.76345C129.873 15.7555 128.567 27.7301 127.451 39.7221C127.237 41.9953 126.428 42.9695 124.11 42.9463C117.192 42.8709 110.273 42.8767 103.349 42.9521C101.286 42.9753 100.384 42.1402 100.188 40.128C98.997 27.6837 97.737 15.2452 96.5753 2.79505C96.4944 1.89043 97.0377 0.933615 97.2862 0C108.216 0 119.151 0 130.081 0ZM100.581 4.036C100.823 6.73826 101.003 9.18538 101.303 11.6151C101.373 12.1602 101.754 12.9488 102.193 13.1228C105.407 14.4101 108.667 15.6743 112.169 14.1086C116.059 12.3747 119.995 11.9166 124.058 13.5055C124.613 13.7201 125.266 13.6795 126.076 13.7839C126.388 10.4785 126.682 7.34134 127 4.036H100.575H100.581ZM122.908 38.8929C123.058 37.9767 123.186 37.3504 123.255 36.7183C123.394 35.3614 123.498 34.0045 123.631 32.6475C124.006 28.8029 123.278 27.9737 119.348 27.9041C118.539 27.8867 117.666 27.8519 116.926 28.1186C112.557 29.7017 108.187 31.0818 102.916 29.0986C103.586 32.7693 104.135 35.7963 104.702 38.8929H122.914H122.908ZM101.945 17.298C102.153 19.6755 102.268 21.5717 102.517 23.4505C102.592 24.013 102.974 24.9293 103.332 24.993C105.788 25.428 108.499 26.4544 110.707 25.8165C115.221 24.5175 119.562 23.1954 124.579 24.9756C124.579 22.3952 125.48 19.3044 124.388 18.2084C122.296 16.1092 118.989 15.8309 115.932 16.9732C115.764 17.037 115.579 17.0776 115.418 17.1472C111.146 18.9912 106.823 19.3044 101.951 17.298H101.945Z" fill="#C2A46C"/>
<path d="M30.0609 0C33.5231 6.5585 33.1358 10.5365 28.3039 20.4525C30.7487 23.3114 33.5346 25.6831 35.1934 28.6869C39.222 35.9761 34.8987 42.8651 26.6046 42.9173C22.1483 42.9463 17.6921 42.9347 13.2358 42.9173C8.63508 42.8999 5.64112 40.3774 3.76267 36.4342C2.36395 33.4884 1.24266 30.415 0 27.4054C0 25.3932 0 23.3868 0 21.3746C1.74551 14.4159 7.01094 11.07 12.9873 8.18797C18.0793 5.72926 22.9228 2.74865 27.8762 0C28.6044 0 29.3327 0 30.0609 0ZM27.8299 5.17257C25.9052 6.26856 24.1828 7.38194 22.3564 8.27496C18.5244 10.148 14.4612 11.6151 10.8141 13.7839C5.16139 17.153 2.46221 22.2154 4.46781 27.8925C5.57176 31.0122 7.14966 34.0219 8.92407 36.8169C9.62343 37.9129 11.4267 38.8291 12.7677 38.8929C17.7614 39.1364 22.7783 39.0784 27.7779 38.9683C31.2631 38.8871 33.4768 35.9181 32.5983 32.5663C31.7833 29.464 30.1303 26.8255 27.0439 25.5555C23.4604 24.0768 19.7555 22.8881 16.1778 21.3978C15.3801 21.0672 14.8831 19.9944 14.2473 19.2696C15.0623 18.7129 15.8425 17.7677 16.6979 17.6865C17.9117 17.5763 19.2989 17.8605 20.4028 18.4055C23.1078 19.7451 24.4834 18.6085 25.6625 16.231C27.3444 12.856 29.4309 9.62029 27.8241 5.17837L27.8299 5.17257Z" fill="#C2A46C"/>
<path d="M65.3814 124.959C55.7291 124.959 46.0768 124.959 36.4186 124.959C33.0779 124.959 32.8005 124.687 32.7947 121.387C32.7831 114.266 33.0837 107.122 32.6791 100.024C32.4363 95.8318 34.0374 93.2165 37.1469 90.8621C40.4703 88.3454 43.5567 85.5098 46.7761 82.8423C48.4465 81.4564 50.1226 80.0589 51.9086 78.8353C52.5964 78.3656 53.5963 78.1569 54.4517 78.1511C61.8268 78.0989 69.2192 77.8553 76.5712 78.2844C78.7964 78.412 81.1257 80.1981 83.0273 81.7116C87.6511 85.3822 92.1305 89.2501 96.4943 93.2339C97.4826 94.1385 98.2629 95.8144 98.2918 97.1481C98.4536 105.272 98.2976 113.402 98.4132 121.526C98.4536 124.177 97.4595 125.029 94.8759 125C85.0386 124.896 75.2071 124.959 65.3699 124.959H65.3814ZM91.645 120.987C86.5356 115.6 81.9638 110.729 77.2994 105.951C76.8371 105.475 75.7967 105.435 75.028 105.429C70.2134 105.382 65.3814 105.643 60.5841 105.33C56.3071 105.052 52.7178 105.684 50.377 109.691C50.1226 110.126 49.5447 110.364 49.1805 110.752C46.1288 114.017 43.0886 117.299 39.6611 120.987H91.645ZM92.0958 94.9155C89.3446 92.4626 86.6108 90.0851 83.952 87.6322C79.7963 83.7875 75.4152 80.8533 69.2597 81.9841C66.7108 82.4538 63.9943 82.1697 61.3586 82.0363C57.0296 81.8217 52.7929 81.7057 49.8568 85.7649C49.7181 85.9563 49.3597 85.9737 49.1574 86.1477C45.7993 89.0355 42.447 91.9407 39.0311 94.8923C53.0068 104.246 78.5421 104.089 92.09 94.9155H92.0958ZM49.7296 104.176C45.4699 102.35 41.2564 100.546 36.8579 98.6558V118.099C41.4702 113.112 45.5508 108.699 49.7296 104.176ZM93.8067 117.525C94.0032 117.38 94.1939 117.235 94.3904 117.09V98.6326C89.8995 100.558 85.686 102.367 81.4551 104.182C85.6397 108.699 89.7261 113.112 93.8067 117.519V117.525Z" fill="#C2A46C"/>
<path d="M63.6072 56.417C63.6072 54.9151 63.4454 53.5466 63.6477 52.2303C63.9309 50.3746 62.4165 47.1447 65.5203 47.1331C68.8668 47.1215 67.1965 50.4616 67.5259 52.3694C67.7398 53.5988 67.5664 54.8977 67.5664 56.3764H110.568C110.568 54.1961 110.378 52.0157 110.649 49.8933C110.782 48.8553 111.765 47.9275 112.36 46.9475C113.198 47.7593 114.672 48.5074 114.765 49.3946C115.059 52.2709 115.03 55.2167 114.776 58.1045C114.603 60.0587 113.048 60.5342 111.158 60.5284C97.8585 60.4704 84.5649 60.4994 71.2655 60.4994C70.1846 60.4994 69.1096 60.4994 67.7976 60.4994V68.2061C68.7397 67.6726 69.5373 66.9129 70.4101 66.8086C71.4331 66.6868 72.5197 67.1391 73.5774 67.3421C73.2248 68.3337 73.1613 69.6906 72.4677 70.2473C70.78 71.5926 68.7975 72.561 66.9364 73.6802C66.7803 73.773 66.6243 73.8774 66.4566 73.9354C65.029 74.4283 57.654 70.2995 57.4228 68.7918C57.3361 68.2409 57.521 67.2957 57.8852 67.0985C58.6076 66.71 59.6133 66.4432 60.3763 66.6346C61.3704 66.8782 62.2489 67.6146 63.4338 68.2873V60.511C62.1911 60.511 61.1161 60.511 60.041 60.511C46.8341 60.511 33.6272 60.511 20.4202 60.511C17.0968 60.511 16.201 59.6644 16.1316 56.359C16.0854 54.1729 15.9178 51.9287 16.3166 49.8121C16.5131 48.751 17.7615 47.2259 18.6921 47.1041C20.4896 46.8605 20.5994 48.606 20.5994 50.0325C20.5994 52.1085 20.5994 54.1903 20.5994 56.4286H63.6072V56.417Z" fill="#C2A46C"/>
<path d="M61.7806 10.4031C60.6709 9.33612 59.9484 8.64026 59.2317 7.95019C60.0409 7.28332 60.7749 6.33231 61.6997 6.07716C62.1274 5.96119 63.3701 7.16155 63.4336 7.84581C63.4972 8.52428 62.5493 9.30132 61.7864 10.4031H61.7806Z" fill="#C2A46C"/>
<path d="M73.0166 7.70082C71.3983 8.70402 70.5371 9.65504 69.751 9.59705C68.9996 9.53906 68.3292 8.42568 67.624 7.77621C68.2714 7.16733 68.8956 6.09454 69.566 6.06555C70.4157 6.02496 71.3058 6.83679 73.0108 7.70082H73.0166Z" fill="#C2A46C"/>
<path d="M16.9523 33.1926C15.6461 34.0914 14.86 35.054 14.2011 34.9728C13.4902 34.8916 12.8949 33.8305 12.2476 33.1984C12.8891 32.5605 13.4787 31.4877 14.1896 31.4065C14.8543 31.3254 15.6403 32.288 16.9523 33.1926Z" fill="#C2A46C"/>
<path d="M25.2578 33.0534C24.0267 34.0044 23.3043 34.9902 22.6222 34.9612C21.946 34.9322 20.8189 33.9059 20.7958 33.2854C20.7727 32.6417 21.7784 31.5109 22.4488 31.4123C23.1251 31.3138 23.9458 32.23 25.2636 33.0534H25.2578Z" fill="#C2A46C"/>
<path d="M13.0046 27.4924C11.6637 28.3042 10.8371 29.2031 10.2071 29.0813C9.49621 28.9421 8.96447 27.8867 8.35181 27.2314C9.02227 26.6226 9.65805 25.5962 10.3748 25.5382C11.0105 25.486 11.7446 26.5008 13.0046 27.4924Z" fill="#C2A46C"/>
<path d="M65.7341 85.9738C67.9131 85.9738 70.0978 85.8868 72.2711 85.997C75.4442 86.1535 77.6983 88.5426 77.7561 91.645C77.8139 94.875 75.5425 97.4613 72.2537 97.5541C67.809 97.6816 63.3528 97.6816 58.9081 97.5541C55.6309 97.4555 53.3652 94.8576 53.4288 91.6218C53.4866 88.531 55.7638 86.1303 58.9254 85.9854C61.1911 85.8868 63.4626 85.968 65.7341 85.968V85.9738ZM65.2254 93.7152C67.3177 93.7152 69.4389 93.9124 71.4908 93.6224C72.3462 93.5007 73.0571 92.3409 73.8374 91.6566C73.0745 91.0535 72.3346 89.9634 71.5428 89.9286C67.5489 89.7488 63.5319 89.7488 59.5381 89.9286C58.7751 89.9634 58.0642 91.1115 57.3302 91.7494C58.0527 92.4047 58.7058 93.5007 59.5034 93.6224C61.3703 93.9008 63.3123 93.7094 65.2254 93.7152Z" fill="#C2A46C"/>
</g>
<defs>
<clipPath id="clip0_103_106">
<rect width="131" height="125" fill="white"/>
</clipPath>
</defs>
</svg>
