<svg width="127" height="120" viewBox="0 0 127 120" fill="none" xmlns="http://www.w3.org/2000/svg">
<g clip-path="url(#clip0_103_136)">
<path d="M70.9117 0C72.5003 0 74.0889 0 75.672 0C76.153 0.20026 76.6285 0.417208 77.1207 0.595216C82.983 2.77026 85.2484 6.01891 85.2596 12.3104C85.2596 14.5021 85.2093 16.6939 85.2596 18.8856C85.3547 22.6738 85.4218 26.4343 82.3565 29.3047C84.2583 30.7454 85.9029 31.9915 87.5866 33.2653C89.2312 30.7009 91.6365 29.9777 94.4389 29.9889C102.902 30.0111 111.371 29.9889 119.84 30C125.098 30.0056 127.05 31.9136 126.994 37.137C126.899 45.8817 126.704 54.6264 126.597 63.3766C126.513 70.191 125.534 71.1923 118.749 71.1978C116.333 71.1978 113.916 71.1978 111.5 71.1978C111.433 71.4259 111.36 71.6484 111.293 71.8765C111.975 72.4884 112.663 73.0892 113.34 73.7066C120.416 80.2373 126.67 87.2131 127 97.5932C127.224 104.63 123.493 108.869 116.4 108.658C113.184 108.563 111.517 109.887 110.001 112.273C107.853 115.65 104.826 118.047 100.939 119.127C92.2909 121.524 85.4554 118.988 80.0966 111.784C79.1904 110.56 78.7597 108.696 76.3824 108.719C62.9798 108.836 49.5716 108.752 36.169 108.836C35.4363 108.836 34.3623 109.503 34.0322 110.148C31.9514 114.248 28.8469 116.991 24.5285 118.754C15.1366 122.598 2.92552 117.035 0.548185 107.417C0.447498 107.022 0.184593 106.666 0 106.288C0 104.185 0 102.077 0 99.974C1.45996 96.9757 2.92552 93.9774 4.38548 90.9735C3.09893 90.3727 1.54946 89.6495 0 88.9264C0 88.3979 0 87.875 0 87.3466C4.39108 81.3944 9.83937 77.2112 17.5979 76.7161C18.23 76.6772 19.0578 75.8539 19.3711 75.1919C20.8031 72.188 22.0896 69.1174 23.4153 66.0634C24.2544 64.122 25.0767 62.175 26.0052 59.9889C23.5272 59.9889 21.4911 59.8554 19.483 60.0222C16.8092 60.2392 15.7296 58.8318 15.6513 56.5121C15.5394 53.1856 15.5226 49.8479 15.6568 46.527C15.7463 44.3686 16.7141 42.9946 19.2984 43.0947C23.2587 43.2449 27.2303 43.2004 31.1906 43.0836C32.1248 43.0558 33.1652 42.5607 33.9539 41.9989C37.9311 39.1507 41.0747 35.8854 39.8945 30.3393C39.7714 29.7719 41.03 28.9097 41.6453 28.1865C42.283 28.9598 43.4017 29.694 43.4689 30.5173C43.8381 34.9731 44.1905 39.5346 39.5365 42.3883C39.4246 42.4606 39.4078 42.6887 39.4022 42.7109C44.3583 46.0263 49.8625 44.9305 55.5681 44.9193C54.6619 37.4485 58.9243 33.0484 64.4733 29.4548C59.7242 24.6876 62.5099 18.6353 61.2961 13.1393C59.4949 13.1393 57.7105 13.3395 56.0156 13.0558C55.1262 12.9056 54.3766 11.8988 53.5655 11.2813C54.3654 10.6638 55.1094 9.63471 55.982 9.50677C57.8559 9.23419 59.8026 9.42333 61.7492 9.42333C62.8791 4.19433 66.2801 1.4797 70.9229 0.0111255L70.9117 0ZM119.018 104.319C122.508 102.95 123.47 101.76 123.213 98.3219C122.553 89.5049 117.776 82.8685 111.438 77.1556C109.413 75.331 106.969 74.7858 104.166 74.936C99.7753 75.1697 95.3563 74.936 90.954 75.0473C90.0031 75.0695 89.0633 75.6703 88.1236 76.0263C85.7183 76.9442 83.3018 78.6964 80.9245 78.6408C74.4581 78.4851 66.3976 85.7111 67.2198 93.0706C67.4044 94.7172 67.1415 96.4027 67.2702 98.0604C67.466 100.53 66.3248 101.265 63.9867 101.226C58.0853 101.126 52.1783 101.192 46.2769 101.192C45.4323 101.192 44.5932 101.192 43.6702 101.192V104.836C44.5485 104.892 45.3148 104.981 46.0867 104.981C53.7557 104.992 61.4191 104.93 69.0825 105.025C71.018 105.047 71.7228 104.569 72.064 102.511C73.11 96.158 75.1797 90.4116 80.3036 85.75C89.8297 77.0832 111.83 78.4573 116.982 96.2581C117.754 98.9171 118.341 101.626 119.012 104.319H119.018ZM123.152 41.3814H91.6644V59.7942H123.152V41.3814ZM114.94 104.825C114.487 96.9256 111.533 90.3783 104.653 86.629C97.9853 82.9909 90.7247 83.1077 84.359 87.5579C78.5471 91.6243 75.767 97.5987 75.6776 104.825H114.94ZM86.9545 67.443C86.1434 67.443 85.2876 67.443 84.4317 67.443C79.2296 67.443 74.033 67.443 68.8308 67.443C62.1295 67.443 55.4283 67.3595 48.7326 67.5209C47.446 67.5487 45.1582 68.4165 45.0799 69.0896C44.8114 71.5038 44.6939 74.2518 45.6169 76.4102C47.446 80.7102 49.98 84.7209 52.2902 88.8096C52.5811 89.3213 53.2803 89.8943 53.8173 89.9165C56.5078 90.0278 59.204 89.9666 62.5155 89.9666C60.2445 85.9725 58.1636 82.4791 56.2561 78.9078C54.6731 75.9484 55.3108 75.0083 58.7341 74.9972C66.1402 74.975 73.5407 75.0417 80.9468 74.9638C85.4162 74.9193 87.581 72.2381 86.9545 67.443ZM39.7714 104.663C39.7714 100.508 39.8329 96.3249 39.7043 92.1528C39.6819 91.5075 38.9044 90.6397 38.2555 90.2948C32.2814 87.163 26.2681 84.1146 20.2437 81.0773C19.6396 80.7714 18.9236 80.5322 18.2579 80.5266C13.0446 80.471 9.11778 82.9075 5.7056 86.9127C6.27616 87.1574 6.57263 87.2909 6.88029 87.4077C14.1018 90.1113 20.8087 93.4656 25.7647 99.7404C29.1825 104.063 33.8812 105.937 39.7714 104.663ZM87.1559 63.6325C87.1559 56.2674 87.3964 49.1749 87.0776 42.1046C86.837 36.8255 83.0389 32.9816 77.7584 32.1973C75.1741 31.8135 72.4723 31.8691 69.8545 32.0805C63.3434 32.5978 59.0138 38.2885 60.0151 44.797H63.8356C64.1377 43.4174 64.3223 42.1991 64.6691 41.0254C65.8214 37.1259 69.9104 34.9008 74.1281 35.8242C77.8423 36.6364 80.9468 40.9698 80.242 44.6023C79.6994 47.4059 78.8156 50.1428 78.2395 52.9408C77.2326 57.8027 74.6651 59.9611 69.5972 59.9833C66.364 59.9944 63.1364 59.9833 59.9536 59.9833V63.6269H87.1503L87.1559 63.6325ZM41.5726 59.9833C38.3338 59.9833 35.4307 59.8609 32.5555 60.0612C31.6829 60.1224 30.525 60.89 30.0943 61.6633C28.7853 64.0274 27.8064 66.5641 26.6261 69.0005C25.2053 71.9321 23.7118 74.8303 22.1959 77.8565C28.2875 80.9605 33.9539 83.842 39.9896 86.9182C40.5266 77.7675 41.0356 69.0673 41.5726 59.9833ZM15.2821 95.5238C13.1117 94.3556 11.9258 93.6047 10.6393 93.0929C10.1302 92.8871 9.101 92.9816 8.83809 93.3321C7.19353 95.5238 5.18539 97.6432 4.26242 100.135C2.51718 104.847 4.74348 108.774 7.98784 112.162C14.6612 119.138 27.4876 116.785 30.5194 108.051C27.8381 106.449 25.4104 106.601 23.2363 108.507C22.9063 108.797 22.5707 109.086 22.2071 109.331C19.0355 111.456 14.3367 110.86 11.8363 108.023C9.29678 105.142 9.34153 100.948 12.0601 97.9881C12.8208 97.1593 13.8724 96.5919 15.2877 95.5294L15.2821 95.5238ZM73.7813 54.86C73.8036 54.5652 73.826 54.2648 73.8484 53.97C70.5649 52.2455 67.4212 49.5197 63.9587 49.0191C58.2643 48.2014 52.3573 48.6853 46.5454 48.88C42.7081 49.008 40.1294 52.0731 40.0455 56.1283H45.2309C45.0743 55.9447 44.9232 55.7556 44.7666 55.572C45.684 54.5652 46.6014 53.5527 47.5243 52.5459C48.5312 53.5416 49.5381 54.5429 50.5449 55.5387C50.3883 55.7723 50.2317 56.0004 50.0751 56.234C57.0225 56.234 63.9699 56.2896 70.9117 56.1728C71.8738 56.1561 72.8303 55.3161 73.7869 54.86H73.7813ZM39.8497 46.9943H20.1598V56.1506H34.5133C36.4264 52.8685 38.0877 50.0204 39.8497 46.9943ZM81.6852 24.0312C75.6104 22.4013 72.9143 18.3293 71.6445 13.3006H65.4858C65.4858 16.6883 65.2005 19.9536 65.6144 23.1244C65.8102 24.6208 67.052 26.6902 68.3386 27.2019C71.8962 28.6093 75.7335 28.9097 79.2184 26.6846C80.0854 26.1339 80.6672 25.1437 81.6852 24.0256V24.0312ZM83.1731 108.836C85.4106 113.825 90.5121 116.64 96.173 116.206C101.61 115.795 106.096 112.796 107.131 108.836H83.1731ZM123.101 37.3317C123.655 34.567 122.463 33.6881 119.985 33.7048C111.528 33.7604 103.07 33.7104 94.6067 33.7326C91.7707 33.7382 91.3736 34.2722 91.7875 37.3317H123.096H123.101ZM91.5805 71.0365H106.885V63.9217H91.5805V71.0365ZM43.6702 97.2594H63.2986V93.8828H43.6702V97.2594ZM65.9277 9.22307H80.9412C80.1469 6.28036 76.841 3.84387 73.703 3.74374C70.3467 3.63249 66.9346 5.97997 65.9277 9.22307ZM74.7042 50.1261C74.8888 49.7144 74.9448 49.6366 74.956 49.5531C75.258 47.9288 75.5601 46.3045 75.8566 44.6801C76.36 41.8932 75.4202 40.0019 73.2834 39.4956C71.1187 38.9839 68.6183 40.636 68.1316 43.117C67.9246 44.1851 67.7792 45.8984 68.3721 46.3601C70.2404 47.8287 72.4668 48.8466 74.7098 50.1261H74.7042ZM23.5384 102.906C21.7764 101.042 20.171 99.3399 18.56 97.6377C17.2958 98.5667 16.0148 99.1507 15.2821 100.141C14.5213 101.176 13.7438 102.711 13.9787 103.812C14.2025 104.869 15.5729 106.032 16.7085 106.471C19.9528 107.734 21.3233 104.88 23.5384 102.9V102.906ZM111.405 67.3929C114.767 67.3929 118.011 67.493 121.244 67.315C121.926 67.2761 122.553 66.2359 123.207 65.6629C122.598 65.0399 122.016 63.9106 121.367 63.8772C118.072 63.6937 114.761 63.7938 111.399 63.7938V67.3985L111.405 67.3929ZM45.4379 60.0834C45.3316 61.4686 45.2365 62.6423 45.1582 63.677H55.2884V60.0834H45.4379ZM75.5881 13.2171C76.6173 16.4714 77.9878 18.8745 81.3328 19.5531V13.2171H75.5881ZM64.2775 85.4942C66.0899 83.1522 67.7345 81.0328 69.4014 78.8856H61.05C62.1799 81.1997 63.1979 83.2857 64.2775 85.4942ZM44.4981 83.091C44.3303 83.1189 44.1625 83.1467 43.9947 83.1745C43.8884 85.3606 43.7821 87.5468 43.6702 89.8498H48.2403C46.9426 87.5023 45.7231 85.2995 44.4981 83.091Z" fill="#C2A46C"/>
<path d="M80.7119 100.013C81.5062 93.0707 88.5543 87.1185 94.8752 87.6414C95.6528 87.7026 96.352 88.754 97.0848 89.3436C96.4974 89.9889 95.938 91.1626 95.3171 91.196C89.2927 91.5131 85.9253 94.784 84.2695 100.319C84.0905 100.914 82.7592 101.582 82.0656 101.487C81.4447 101.404 80.9636 100.308 80.7175 100.013H80.7119Z" fill="#C2A46C"/>
</g>
<defs>
<clipPath id="clip0_103_136">
<rect width="127" height="120" fill="white"/>
</clipPath>
</defs>
</svg>
