<svg width="100" height="122" viewBox="0 0 100 122" fill="none" xmlns="http://www.w3.org/2000/svg">
<g clip-path="url(#clip0_103_118)">
<path d="M91.9921 0C93.6925 1.07183 95.4096 2.1156 97.0819 3.21549C99.3939 4.73625 99.9663 7.09315 99.9663 9.64647C99.9775 32.8058 99.9439 55.9652 99.9944 79.1246C100.006 83.8047 97.2783 86.3973 93.4624 88.0864C91.9977 88.7374 91.56 89.5062 91.4029 90.9764C90.5499 98.8833 89.6128 106.779 88.6588 114.675C88.193 118.513 85.4489 120.971 81.5432 120.999C74.4725 121.044 67.3962 121.055 60.3255 120.999C56.2794 120.965 53.7598 118.591 53.3333 114.59C52.9854 111.341 52.8395 108.058 52.2671 104.848C52.0875 103.844 50.8137 103.03 50.0393 102.132C49.2705 103.036 48.0022 103.855 47.8227 104.865C47.2503 108.075 47.0987 111.358 46.7564 114.607C46.3299 118.603 43.8103 120.965 39.7531 120.999C32.7665 121.055 25.7856 121.038 18.7991 121.01C14.5454 120.993 11.8855 118.597 11.3973 114.411C10.4714 106.515 9.60155 98.6083 8.569 90.7239C8.45116 89.8373 7.62063 88.7037 6.81255 88.3109C2.49156 86.2065 0.0224267 83.2548 0.0560967 78.064C0.213224 56.229 0.325457 34.3939 -1.99962e-05 12.5645C-0.0898068 6.1055 2.31199 2.19416 8.10885 0C36.0718 0 64.0292 0 91.9921 0ZM91.9248 75.202C94.9439 73.8047 95.7014 71.6667 95.6958 68.9899C95.6734 49.5342 95.6902 30.0786 95.679 10.6229C95.679 5.82492 93.5634 3.76543 88.6476 3.75982C62.9068 3.75421 37.1661 3.75421 11.4253 3.75982C6.44218 3.75982 4.42198 5.83614 4.41637 10.9147C4.41075 21.5264 4.41637 32.138 4.41637 42.7497C4.41637 51.5937 4.42198 60.4377 4.41637 69.2817C4.41637 71.9473 5.3479 73.9506 8.17619 75.1796C8.17619 70.9147 8.09762 67.0314 8.20986 63.1481C8.26036 61.4815 7.28393 58.7486 10.129 58.8103C12.9798 58.8664 11.7901 61.6105 11.8967 63.2492C12.0651 65.8025 11.9416 68.3782 11.9416 70.9428C11.9416 75.477 12.0987 75.6341 16.7733 75.6341C38.9787 75.6341 61.1784 75.6341 83.3838 75.6341C84.0909 75.6341 84.8036 75.6622 85.505 75.6004C87.2222 75.4489 88.2491 74.7138 88.1818 72.7497C88.0808 69.8373 88.1537 66.9136 88.1594 63.9955C88.1594 60.4602 88.064 56.9136 88.2435 53.3895C88.2828 52.5982 89.3041 51.8575 89.8765 51.0943C90.5555 51.8519 91.3917 52.5253 91.8687 53.3951C92.1661 53.9394 91.9304 54.7811 91.9304 55.4882C91.9304 61.936 91.9304 68.3838 91.9304 75.2132L91.9248 75.202ZM12.1717 88.9899C12.6262 91.0494 13.1762 92.8676 13.4175 94.7306C14.2312 101.134 14.9775 107.542 15.6622 113.962C15.9147 116.336 16.9585 117.34 19.4332 117.295C25.8922 117.177 32.3513 117.183 38.8103 117.295C41.2963 117.34 42.3569 116.308 42.5196 113.923C42.7329 110.836 43.0303 107.75 43.395 104.68C43.8047 101.195 46.762 98.3838 49.9439 98.3109C53.1874 98.2379 56.2794 101.117 56.7115 104.731C57.0707 107.716 57.3681 110.713 57.5589 113.709C57.716 116.167 58.6812 117.357 61.3468 117.301C67.8002 117.172 74.2649 117.183 80.7239 117.301C83.2323 117.346 84.2087 116.251 84.45 113.917C84.9326 109.169 85.4938 104.428 86.1111 99.6914C86.5713 96.156 87.1549 92.6431 87.7048 88.9955H12.1717V88.9899ZM4.54543 78.4287C4.2424 82.6038 6.29066 85.0281 10.679 85.0281C36.9416 85.0505 63.2042 85.0505 89.4669 85.0281C93.8384 85.0281 95.9147 82.5196 95.5555 78.5859C92.1717 78.8777 88.8047 79.4108 85.4377 79.422C61.2065 79.4949 36.9809 79.4893 12.7497 79.4164C10.0785 79.4108 7.413 78.7879 4.54543 78.4287Z" fill="#C2A46C"/>
<path d="M41.9978 26.0101C41.9978 29.4781 42.0259 32.211 41.9922 34.9495C41.9305 40.2301 38.1314 42.7946 33.2044 41.0101C32.4356 40.7352 31.3806 40.7744 30.6118 41.0719C26.4255 42.6824 22.0764 39.9607 21.9698 35.5163C21.9024 32.6038 21.9586 29.6858 21.706 26.7116C20.2975 30.7295 17.8901 34.4838 18.2941 38.9619C18.6701 43.165 21.5994 46.1055 26.5938 46.9024C29.4614 47.3569 30.1572 48.6308 30.0787 51.2963C29.9103 56.9529 30.0506 62.6151 30.0113 68.2772C30.0001 69.697 30.4883 71.6723 28.21 71.7004C26.0046 71.734 26.2571 69.8485 26.2515 68.3614C26.2347 63.2324 26.1898 58.1033 26.2796 52.9742C26.3076 51.3917 25.8755 50.6847 24.2313 50.2694C16.9024 48.4175 12.7891 41.2851 15.0001 34.0853C17.1269 27.1605 19.5736 20.3367 21.8014 13.4456C22.3009 11.908 23.2998 11.0157 24.6858 11.5376C25.4266 11.8182 26.1673 13.2267 26.1842 14.1414C26.3132 20.6847 26.2515 27.2279 26.2515 33.7767C26.2515 34.4838 26.0439 35.3199 26.3413 35.8698C26.7453 36.6106 27.5534 37.1269 28.1875 37.7441C28.7936 37.1212 29.7363 36.5825 29.9215 35.8474C30.2246 34.6858 30.0281 33.3895 30.0281 32.1549C30.0281 26.229 29.9552 20.3031 30.1011 14.3771C30.1235 13.3783 31.1112 12.4074 31.6555 11.4254C32.5197 12.2559 33.5803 12.9686 34.1864 13.9619C34.5904 14.624 34.3828 15.679 34.3828 16.5601C34.394 22.5758 34.3828 28.5915 34.3996 34.6016C34.3996 36.0157 34.265 37.7385 36.3301 37.688C38.3446 37.6375 38.1987 35.926 38.2044 34.5062C38.2156 27.8732 38.1426 21.2402 38.2829 14.6072C38.3054 13.5354 39.2706 12.4804 39.8037 11.4142C40.6342 12.2784 41.8407 12.9967 42.2391 14.0292C44.6297 20.2582 46.9417 26.5264 49.0798 32.8451C51.7958 40.853 48.4457 47.587 40.4154 50.174C38.5803 50.7632 38.1426 51.5432 38.1763 53.3053C38.2829 58.4344 38.311 63.5691 38.1314 68.6925C38.0977 69.7363 37.0371 70.7408 36.4479 71.7677C35.6005 70.8081 34.0517 69.8766 34.018 68.8833C33.788 62.6992 33.8104 56.504 33.9339 50.3199C33.9732 48.5242 35.045 47.2671 37.1325 47.1212C40.7913 46.8631 43.339 44.5792 45.2358 41.7902C46.8744 39.3827 46.5545 36.5376 45.4434 33.8833C44.4445 31.4927 43.3615 29.1358 41.9922 26.0214L41.9978 26.0101Z" fill="#C2A46C"/>
<path d="M75.6509 51.1952C75.6509 56.7452 75.6509 62.7553 75.6509 68.7654C75.6509 70.0953 75.8024 71.6835 73.8889 71.7171C71.8574 71.7508 71.8855 70.1346 71.8855 68.6756C71.8855 62.5757 71.936 56.4702 71.8574 50.3703C71.835 48.6026 72.4579 47.6038 74.1189 46.9809C77.9012 45.5555 79.9439 42.5925 80.9259 38.799C82.4074 33.0695 82.4018 27.4522 79.8372 21.9696C77.5982 17.1829 71.4478 13.294 66.0606 16.1223C63.9955 17.2053 61.9528 19.0628 60.8249 21.083C56.9697 27.9685 57.2615 35.1515 60.5387 42.2053C61.6779 44.6632 63.5914 46.4197 66.3243 47.3176C67.11 47.5757 68.0247 48.9337 68.0471 49.8092C68.1874 56.3468 68.1201 62.8956 68.1257 69.4388C68.1257 70.9259 67.4242 72.0707 65.9596 71.6834C65.1066 71.459 63.9618 70.1739 63.9338 69.3378C63.7542 63.6868 63.8776 58.019 63.7879 52.3625C63.7766 51.5432 63.367 50.4152 62.7553 49.9719C55.2693 44.5847 53.193 37.0145 54.0179 28.3557C54.4893 23.3726 56.9304 19.1414 60.2693 15.5667C65.4994 9.96627 74.3154 10.0168 79.725 15.4377C87.0987 22.8282 87.8002 38.9225 80.9596 46.8013C79.6072 48.3557 77.7609 49.4781 75.6509 51.2008V51.1952Z" fill="#C2A46C"/>
<path d="M78.8834 31.7845C77.733 34.8204 76.7397 37.9293 75.348 40.8474C74.7981 41.9977 73.4625 42.9349 72.2728 43.5522C71.7173 43.8384 70.3817 43.3558 69.9047 42.789C69.5904 42.4186 69.9215 41.0325 70.4097 40.5331C74.2145 36.6554 75.0899 28.9843 72.0035 24.5174C71.4535 23.7205 70.3256 23.3389 69.6297 22.6094C69.0349 21.9865 68.6813 21.1335 68.2156 20.3816C69.0573 19.9326 70.0394 18.9618 70.7184 19.1414C71.9978 19.4837 73.3503 20.2581 74.2257 21.2514C76.7734 24.1414 78.4681 27.4635 78.0809 31.5208C78.3503 31.6049 78.6196 31.6947 78.8834 31.7789V31.7845Z" fill="#C2A46C"/>
<path d="M92.6711 45.3928C91.4365 46.2514 90.6789 47.1773 90.0224 47.11C89.3602 47.0482 88.3108 45.9989 88.3164 45.3816C88.3164 44.7643 89.3658 43.7149 90.028 43.6532C90.6845 43.5914 91.4365 44.523 92.6767 45.3872L92.6711 45.3928Z" fill="#C2A46C"/>
<path d="M10.1123 55.5836C9.21444 54.3153 8.26045 53.5577 8.33902 52.9349C8.4288 52.2446 9.47258 51.6834 10.1011 51.0662C10.7015 51.6947 11.7004 52.2671 11.7902 52.9629C11.8688 53.5858 10.9541 54.3434 10.1067 55.5836H10.1123Z" fill="#C2A46C"/>
</g>
<defs>
<clipPath id="clip0_103_118">
<rect width="100" height="121.038" fill="white"/>
</clipPath>
</defs>
</svg>
