<svg width="120" height="121" viewBox="0 0 120 121" fill="none" xmlns="http://www.w3.org/2000/svg">
<g clip-path="url(#clip0_103_125)">
<path d="M74.6898 0C80.1869 2.21744 82.391 6.28987 81.9107 12.1267C81.6545 15.213 80.8807 18.8589 82.1668 21.3003C83.3249 23.5017 86.9594 24.4292 89.5211 25.8791C100.179 31.9184 107.015 40.9854 111.103 52.3818C113.03 57.7602 114.631 63.1545 115.165 68.8581C115.224 69.5137 115.848 70.3079 116.435 70.6971C119.376 72.6426 120.576 75.3398 119.728 78.4314C118.943 81.2779 116.382 83.1755 113.046 83.1915C105.708 83.2341 98.3643 83.1968 91.0261 83.2128C89.6705 83.2128 88.2989 83.1009 88.2296 81.4165C88.1495 79.5082 89.6598 79.4389 91.0741 79.4389C97.9053 79.4389 104.742 79.4389 111.573 79.4282C112.411 79.4282 113.446 79.6148 114.044 79.2097C114.919 78.618 115.992 77.5999 116.035 76.7151C116.077 75.8302 115.122 74.6629 114.284 74.0552C113.644 73.5914 112.507 73.73 111.594 73.73C99.7839 73.7141 87.9734 73.7194 76.1628 73.7141C75.4904 73.7141 74.6845 73.9166 74.1722 73.6234C73.4784 73.2236 72.5551 72.4188 72.5764 71.8164C72.5978 71.2088 73.5584 70.4678 74.2682 70.0894C74.7966 69.8122 75.5918 70.0148 76.2642 70.0148C86.7245 70.0148 97.1849 70.0148 107.65 70.0148H110.831C110.564 67.744 110.559 65.6492 110.036 63.6876C108.766 58.9115 107.629 54.0502 105.761 49.4981C103.061 42.9097 98.7165 37.2488 93.1448 32.8246C86.5164 27.5635 78.7886 24.5411 70.3403 23.4164C59.1221 21.9239 48.1121 22.4996 37.5291 26.7959C31.7759 29.1306 26.9354 32.7446 22.5965 37.2808C17.9213 42.1688 15.2102 47.9682 12.8833 54.1035C10.9834 59.1141 9.28626 64.1513 9.33429 70.0094C10.3003 70.0094 11.1809 70.0094 12.0614 70.0094C22.858 70.0094 33.6598 70.0094 44.4564 70.0094C45.1288 70.0094 45.9187 69.8282 46.4524 70.1107C47.0981 70.4519 48.0001 71.2621 47.9307 71.7525C47.8346 72.4454 47.0608 73.2023 46.3776 73.6128C45.876 73.9113 45.0648 73.7087 44.387 73.7087C32.5764 73.7087 20.7659 73.7087 8.95537 73.7194C8.11748 73.7194 7.04476 73.5168 6.49506 73.9379C5.59847 74.6255 4.47238 75.7663 4.5044 76.6831C4.53642 77.5892 5.75323 78.634 6.69253 79.2577C7.29026 79.6574 8.33095 79.4229 9.17418 79.4282C20.2269 79.4336 31.2796 79.4282 42.3323 79.4389C43.0901 79.4389 43.9494 79.2843 44.5791 79.5828C45.2356 79.8973 46.1588 80.7448 46.0841 81.2246C45.9774 81.9335 45.1608 82.6211 44.5044 83.1222C44.1788 83.3727 43.5224 83.2022 43.0207 83.2022C31.2956 83.2022 19.5651 83.2181 7.83996 83.1968C3.59179 83.1862 0.288259 80.4037 0.0480988 76.8963C-0.154703 73.9113 1.89466 72.4827 3.84263 70.8623C4.56311 70.26 5.21955 69.3005 5.41167 68.3997C6.07879 65.2814 6.44169 62.1044 7.07678 58.9808C8.81661 50.4202 12.926 42.9257 18.3216 36.22C23.0021 30.3992 28.9901 26.0337 36.0508 23.3471C37.7959 22.6808 38.2762 21.748 38.2015 20.005C38.0681 16.9027 38.2923 13.7791 38.1375 10.6821C37.8867 5.63956 40.1708 2.38802 44.7926 0.597004C45.1662 0.453084 45.4971 0.202555 45.8493 0.0053304C55.4664 0.0053304 65.0888 0.0053304 74.7059 0.0053304L74.6898 0ZM78.0895 20.9431C78.0895 16.9133 78.2496 12.8996 78.0361 8.90176C77.876 5.97537 75.6291 3.90718 72.6618 3.86987C64.395 3.76326 56.1281 3.76326 47.8613 3.86987C44.878 3.90718 42.6472 5.97004 42.4871 8.90176C42.2682 12.8996 42.4337 16.9133 42.4337 20.9431C44.9812 20.6233 46.2549 19.2818 46.2549 16.9187C46.2549 14.7332 46.3083 12.5478 46.2389 10.3623C46.1802 8.49132 46.8793 7.54784 48.87 7.5585C56.4644 7.59581 64.0588 7.59581 71.6478 7.5585C73.6385 7.54784 74.3376 8.49132 74.2789 10.3623C74.2095 12.5478 74.2629 14.7332 74.2629 16.9187C74.2629 19.2854 75.5366 20.6286 78.0841 20.9485L78.0895 20.9431ZM50.0921 11.5083V19.2001H69.908V11.5083H50.0921Z" fill="#C2A46C"/>
<path d="M25.078 0C26.6951 1.35925 26.535 2.56925 24.9393 3.90185C21.4543 6.81225 21.5183 8.43269 25.0727 11.1565C27.3195 12.8782 28.3762 15.1437 28.0454 17.9528C27.6878 20.9911 25.7131 22.9633 23.1461 24.2053C22.4363 24.5465 21.1501 23.7096 20.1308 23.4164C20.5524 22.5316 20.7285 21.2789 21.4276 20.8152C25.3449 18.2246 25.3502 15.7673 21.2728 13.4539C17.1101 11.0979 17.1634 4.07242 21.3476 1.55648C22.1214 1.09273 22.8205 0.522379 23.557 0C24.064 0 24.571 0 25.078 0Z" fill="#C2A46C"/>
<path d="M96.9661 0C97.3343 0.335815 97.6866 0.692952 98.0761 1.00211C103.269 5.13317 103.226 9.96784 97.9534 14.0509C95.7226 15.778 95.6585 18.0754 97.7933 19.989C98.2309 20.3781 98.9247 20.634 99.1275 21.1137C99.4691 21.9293 99.5118 22.8674 99.6825 23.7522C98.7699 23.8695 97.4037 24.4239 97.0141 24.0294C95.1835 22.1638 93.0008 20.2662 92.1309 17.9368C91.0848 15.149 93.3904 12.9156 95.4717 11.2045C98.9461 8.3474 99.0848 6.80692 95.5998 3.90718C94.0041 2.57458 93.8066 1.36458 95.4504 0C95.9521 0 96.4591 0 96.9661 0Z" fill="#C2A46C"/>
<path d="M52.4135 85.0678C52.4135 75.8249 52.3975 66.6673 52.4189 57.515C52.4349 51.8328 56.16 48.5973 61.7318 49.3702C65.4676 49.8872 68.056 52.8776 68.088 56.9447C68.1414 64.3379 68.104 71.7365 68.104 79.1351C68.104 80.0519 68.104 80.9741 68.104 82.1201C73.0727 80.4251 77.0326 81.3366 79.5303 86.0593C85.8278 84.2683 88.16 85.0039 91.6023 89.9238C92.4989 89.6733 93.4863 89.4867 94.4042 89.1243C97.9372 87.7277 104.395 91.6029 104.32 96.251C104.197 103.644 104.299 111.043 104.299 118.436C104.299 119.843 103.915 120.973 102.228 121C100.419 121.032 99.9919 119.891 99.9973 118.346C100.013 111.453 100.008 104.561 99.9973 97.6689C99.9973 94.46 98.6897 92.7543 96.2614 92.7223C93.8171 92.685 91.9119 94.8864 91.9012 97.7755C91.8905 100.046 91.8852 102.312 91.9012 104.582C91.9172 106.07 91.9386 107.765 89.9532 107.722C87.9679 107.679 88.096 105.926 88.096 104.476C88.096 100.862 88.1174 97.2478 88.0853 93.6338C88.0586 90.6754 86.6604 88.9324 84.3602 88.8791C81.569 88.8151 80.0533 90.4036 80.0159 93.5485C79.9732 97.3277 79.9946 101.112 80.0053 104.897C80.0106 106.357 79.7811 107.818 77.9773 107.743C76.3762 107.674 76.1787 106.304 76.1894 104.924C76.2214 99.881 76.2161 94.8385 76.1894 89.7959C76.1734 86.667 74.8232 85.1531 72.144 85.1531C69.4702 85.1531 68.12 86.6723 68.104 89.8012C68.0827 94.8438 68.0773 99.8863 68.104 104.929C68.1147 106.309 67.9172 107.679 66.3108 107.738C64.5069 107.807 64.2881 106.352 64.2881 104.886C64.2988 89.2522 64.2775 73.6235 64.3041 57.9894C64.3041 55.5748 63.7705 53.6771 61.0433 53.1068C58.631 52.6004 56.603 53.901 56.2881 56.3423C56.1387 57.499 56.2027 58.693 56.2027 59.8657C56.2027 74.3218 56.2027 88.7778 56.2027 103.234C56.2027 103.82 56.1867 104.412 56.2027 104.998C56.2348 106.373 55.9626 107.717 54.3242 107.738C52.7071 107.759 52.3815 106.48 52.3922 105.067C52.4242 101.203 52.4029 97.3331 52.4029 93.4685C52.4029 92.1306 52.4029 90.7927 52.4029 89.4654C48.08 89.3002 44.3815 93.3779 44.3228 98.3672C44.2481 104.668 44.3015 110.974 44.3015 117.279C44.3015 117.866 44.5203 118.617 44.2374 119.012C43.6877 119.785 42.8498 120.883 42.1454 120.872C41.4302 120.861 40.1227 119.683 40.1173 119.012C40.048 111.288 39.4769 103.468 40.4749 95.8619C41.2594 89.9132 46.0466 86.4111 52.4029 85.0785L52.4135 85.0678Z" fill="#C2A46C"/>
<path d="M108.125 24.2106C108.44 21.5881 109.609 18.8856 112.881 17.4837C114.797 16.6628 116.387 15.1916 116.067 13.1234C115.816 11.4976 114.498 10.0158 113.548 8.53926C113.318 8.18212 112.496 8.19278 112.278 7.83565C111.691 6.88151 110.65 5.55957 110.943 4.85596C111.562 3.34212 113.073 3.6193 114.375 4.39754C121.622 8.72049 121.916 16.0178 115.026 20.6926C111.061 23.3844 110.917 25.9164 114.578 28.9547C115.352 29.5997 116.339 30.0687 116.91 30.8523C117.305 31.4013 117.481 32.5527 117.156 33.0484C116.83 33.5548 115.688 33.9226 115.042 33.768C111.184 32.8512 108.072 28.7361 108.131 24.2106H108.125Z" fill="#C2A46C"/>
<path d="M7.96803 3.86454C8.21886 4.05643 8.99805 4.35494 9.15816 4.85066C9.35562 5.45833 9.26489 6.42846 8.88064 6.88688C8.13881 7.76639 7.06076 8.35806 6.18017 9.1363C3.55976 11.4444 3.78391 14.7119 6.50572 16.8974C8.17617 18.2406 9.67583 19.8078 11.1702 21.3536C13.0808 23.3365 12.9527 25.927 11.7412 27.8567C10.3643 30.0368 8.17617 31.7692 6.12146 33.4269C5.60912 33.8427 4.24822 33.2137 3.28224 33.0698C3.51706 32.1956 3.46903 31.0336 4.0294 30.5005C9.68117 25.1062 9.66516 24.5518 3.69852 19.4506C1.18484 17.3078 -0.624365 14.8025 0.202853 11.1832C0.741879 8.81648 5.63581 3.84855 7.96803 3.86454Z" fill="#C2A46C"/>
<path d="M40.7257 34.6955C39.9679 35.058 39.1887 35.3938 38.4468 35.7883C30.6336 39.994 25.2754 46.3052 22.18 54.5779C21.8118 55.564 21.3314 56.6141 20.6003 57.3337C20.0025 57.9201 18.9085 58.3838 18.14 58.2612C17.7077 58.1919 17.0299 56.6781 17.2274 56.0651C19.9492 47.6484 24.715 40.6336 31.9945 35.4525C33.633 34.2851 35.3461 33.187 37.1286 32.2596C38.5803 31.508 40.0159 32.4568 39.9305 33.912C40.192 34.1732 40.4535 34.4344 40.715 34.6955H40.7257Z" fill="#C2A46C"/>
<path d="M62.5217 44.125C61.3475 44.5568 60.2108 45.2018 58.9993 45.3936C50.3856 46.7689 45.6891 54.0609 49.4089 61.9499C49.996 63.1972 50.4176 64.4072 48.8912 65.1801C47.3115 65.9796 46.5697 64.7803 45.988 63.6236C41.2328 54.1142 46.9379 42.382 59.3409 41.721C60.3816 41.6677 61.4756 42.5739 62.543 43.0376C62.5377 43.4001 62.527 43.7625 62.5217 44.125Z" fill="#C2A46C"/>
<path d="M76.6483 56.8913C75.8798 59.2527 75.3034 61.71 74.2307 63.9274C73.8678 64.679 72.112 65.3666 71.2367 65.1428C69.6517 64.7323 69.9932 63.3411 70.5643 62.0405C73.174 56.1024 71.9839 51.3797 66.8658 47.3552C65.7504 46.4757 64.8325 45.415 66.0439 44.2956C66.5936 43.7839 68.2854 43.8638 69.0593 44.3276C73.7024 47.1207 76.2161 51.2411 76.6537 56.8913H76.6483Z" fill="#C2A46C"/>
<path d="M49.7399 28.1285C50.2096 28.5549 51.3036 29.104 51.3196 29.6743C51.3357 30.4312 50.6845 31.5933 50.0121 31.8918C48.6725 32.4888 47.1302 32.8033 45.6519 32.8619C44.9634 32.8885 43.8106 32.1689 43.6559 31.5773C43.4958 30.9856 44.1415 29.7436 44.7446 29.4771C46.1695 28.8428 47.7759 28.6242 49.7399 28.1232V28.1285Z" fill="#C2A46C"/>
</g>
<defs>
<clipPath id="clip0_103_125">
<rect width="120" height="121" fill="white"/>
</clipPath>
</defs>
</svg>
