<svg width="185" height="40" viewBox="0 0 185 40" fill="none" xmlns="http://www.w3.org/2000/svg">
<g clip-path="url(#clip0_107_22)">
<path d="M24.547 20.4286C23.7227 19.4802 22.7151 18.6594 21.5427 17.948C20.3704 17.2367 19.0331 16.6165 17.5493 16.0876L16.2487 15.5951C15.003 15.1756 13.9222 14.8108 13.0246 14.5007C12.127 14.1906 11.3759 13.8623 10.808 13.5157C10.2401 13.1692 9.80049 12.7861 9.52571 12.3301C9.25093 11.8924 9.1227 11.3452 9.1227 10.6521C9.1227 10.1231 9.25093 9.64888 9.52571 9.21113C9.80049 8.79161 10.1669 8.42681 10.6431 8.11673C11.1194 7.80666 11.6507 7.58778 12.2552 7.42362C12.8597 7.25946 13.5009 7.1865 14.1603 7.1865C14.5633 7.1865 14.948 7.24122 15.2961 7.35066C15.6441 7.4601 16.0105 7.58778 16.3952 7.77018C16.7799 7.93434 17.1646 8.09849 17.5676 8.28089C17.9706 8.46329 18.4103 8.60921 18.8865 8.73689C19.0514 8.77337 19.2163 8.80985 19.3995 8.80985C19.5826 8.82809 19.7475 8.84633 19.9124 8.84633C20.5352 8.84633 21.213 8.70041 21.9641 8.42681C22.7151 8.15321 23.3746 7.78842 23.9242 7.29594L25.3164 6.20155C24.7302 5.47196 24.0341 4.74236 23.2097 3.99453C22.3854 3.24669 21.5061 2.59006 20.5352 1.98814C19.5643 1.38623 18.5568 0.893753 17.476 0.528956C16.3586 0.200638 15.2594 0 14.1237 0C12.5849 0 11.0828 0.237118 9.59899 0.711354C8.11518 1.18559 6.81455 1.8787 5.66048 2.7907C4.5064 3.70269 3.59047 4.81532 2.89436 6.14683C2.19825 7.47834 1.8502 8.97401 1.8502 10.6521C1.8502 12.4578 2.16162 13.9717 2.80277 15.212C3.4256 16.4523 4.26826 17.492 5.31242 18.3311C6.33827 19.1883 7.51066 19.8997 8.81128 20.4834C10.1119 21.067 11.4309 21.6142 12.7864 22.1249C13.6657 22.4715 14.5267 22.7998 15.3694 23.0734C16.212 23.3653 16.9631 23.7118 17.6409 24.0948C18.3187 24.4779 18.8499 24.9339 19.2529 25.4993C19.6559 26.0465 19.8757 26.7214 19.8757 27.5422C19.8757 28.363 19.6559 29.1655 19.2163 29.8222C18.7766 30.497 18.2271 31.0442 17.5493 31.5002C16.8715 31.9562 16.1387 32.2845 15.351 32.5034C14.5633 32.7405 13.794 32.85 13.0612 32.85C11.9804 32.85 11.0278 32.6311 10.1852 32.2116C9.34253 31.7921 8.55482 31.2996 7.80376 30.7706C7.32747 30.5153 6.77791 30.2964 6.13676 30.0958C5.49561 29.9134 4.90941 29.8039 4.35985 29.8039C3.92021 29.8039 3.5172 29.8586 3.1325 29.9498C2.74781 30.0593 2.39976 30.187 2.0517 30.3329C1.70365 30.4788 1.3556 30.6612 1.02586 30.8436C0.696125 31.026 0.329752 31.2266 -0.0366211 31.4273C0.256477 32.1204 0.659487 32.8865 1.17241 33.7072C1.68533 34.528 2.36312 35.3306 3.16914 36.0967C4.45145 37.337 5.93526 38.3037 7.60225 38.9603C9.26925 39.6352 11.0828 39.9818 13.0429 39.9818C14.8748 39.9818 16.6333 39.6717 18.337 39.0698C20.0223 38.4679 21.5244 37.6106 22.825 36.5162C24.1257 35.4218 25.1515 34.1085 25.9209 32.5764C26.6903 31.0442 27.075 29.3662 27.075 27.5239C27.075 26.083 26.8552 24.7697 26.3972 23.6024C25.9392 22.435 25.3164 21.3771 24.492 20.4286H24.547Z" fill="white"/>
<path d="M51.8418 0.419434H45.3387L28.1375 39.6169H32.6072C33.1018 39.6169 33.5964 39.5439 34.0727 39.398C34.5673 39.2521 35.0253 39.0514 35.4466 38.7961C35.8679 38.5225 36.2343 38.2124 36.564 37.8476C36.8938 37.4828 37.1502 37.0815 37.3334 36.6438L39.6416 31.336H57.5389L59.8653 36.6438C60.2867 37.574 60.9278 38.3036 61.7705 38.8326C62.6131 39.3615 63.5474 39.6169 64.5732 39.6169H69.043L51.8418 0.419434ZM42.829 24.1312L47.9399 12.2571C48.1597 11.7281 48.3246 11.2357 48.4162 10.7797C48.5078 10.3054 48.5627 9.95888 48.5811 9.72176C48.5811 9.95888 48.636 10.3054 48.7276 10.7614C48.8009 11.2174 48.9658 11.7099 49.2039 12.2571L54.3514 24.1312H42.829Z" fill="white"/>
<path d="M100.295 9.97712L87.3249 39.6169H80.7852L63.6023 0.419434H68.0537C68.5483 0.419434 69.0429 0.492393 69.5192 0.638312C70.0138 0.784231 70.4718 0.984869 70.8931 1.25847C71.3144 1.53206 71.6808 1.86038 72.0106 2.22518C72.3403 2.58998 72.5967 2.99125 72.7799 3.42901L83.4231 27.688C83.533 27.9251 83.6246 28.1805 83.6978 28.4541C83.7711 28.7094 83.8261 28.9648 83.8627 29.2202C83.9177 29.4755 83.9543 29.7126 83.9726 29.9315C84.0093 30.1504 84.0276 30.3146 84.0276 30.424C84.0276 30.3146 84.0276 30.1686 84.0642 29.9498C84.0825 29.7491 84.1192 29.512 84.1741 29.2566C84.2108 29.0013 84.284 28.7459 84.3573 28.4723C84.4489 28.217 84.5405 27.9616 84.6504 27.7245C86.4273 23.657 88.2042 19.6078 89.9628 15.5768C90.6223 14.0811 91.3001 12.5854 91.9412 11.0897H97.0521C98.5176 11.0897 99.5618 10.6338 100.295 9.97712V9.97712Z" fill="white"/>
<path d="M144.626 14.6831C144.131 12.9868 143.453 11.3817 142.592 9.90424C141.713 8.42681 140.669 7.07706 139.423 5.85499C138.196 4.63292 136.822 3.59325 135.338 2.73598C133.836 1.86047 132.242 1.18559 130.52 0.711354C128.817 0.237118 127.04 0 125.19 0C123.339 0 121.544 0.237118 119.822 0.711354C118.1 1.18559 116.488 1.86047 115.004 2.73598C113.502 3.59325 112.147 4.63292 110.919 5.85499C109.692 7.07706 108.648 8.42681 107.769 9.90424C106.889 11.3817 106.211 12.9868 105.735 14.6831C105.259 16.3976 105.021 18.1669 105.021 20.0091C105.021 22.7816 105.534 25.3716 106.596 27.7975C107.64 30.2234 109.087 32.3393 110.919 34.145C112.751 35.9507 114.895 37.3917 117.331 38.4314C119.786 39.4893 122.405 40 125.19 40C127.04 40 128.817 39.7629 130.52 39.2886C132.242 38.8144 133.836 38.1578 135.338 37.2823C136.822 36.425 138.196 35.3671 139.423 34.145C140.669 32.9229 141.713 31.5732 142.592 30.0958C143.453 28.6183 144.131 27.0315 144.626 25.3352C145.102 23.6206 145.358 21.8513 145.358 20.0091C145.358 18.1669 145.102 16.3976 144.626 14.6831ZM137.097 25.0068C136.401 26.5572 135.485 27.9252 134.312 29.0743C133.14 30.2417 131.766 31.1537 130.191 31.8285C128.615 32.5034 126.948 32.8317 125.19 32.8317C123.431 32.8317 121.727 32.5034 120.17 31.8285C118.595 31.1537 117.221 30.2417 116.049 29.0743C114.858 27.9252 113.924 26.5572 113.246 25.0068C112.55 23.4382 112.22 21.7784 112.22 20.0091C112.22 18.2399 112.55 16.58 113.246 15.0296C113.924 13.4793 114.858 12.1295 116.049 10.9622C117.221 9.81304 118.595 8.88281 120.17 8.20793C121.727 7.53306 123.413 7.20474 125.19 7.20474C126.966 7.20474 128.615 7.53306 130.191 8.20793C131.766 8.88281 133.14 9.81304 134.312 10.9622C135.485 12.1295 136.401 13.4793 137.097 15.0296C137.774 16.58 138.123 18.2399 138.123 20.0091C138.123 21.7784 137.774 23.4382 137.097 25.0068V25.0068Z" fill="white"/>
<path d="M179.23 31.9014C177.324 29.3296 175.419 26.7395 173.496 24.1312C174.632 23.5658 175.639 22.8909 176.518 22.0701C177.398 21.2676 178.13 20.3738 178.735 19.4071C179.339 18.4404 179.797 17.4007 180.109 16.3063C180.42 15.212 180.585 14.0993 180.585 12.9502C180.585 11.3633 180.274 9.81296 179.669 8.31729C179.065 6.82162 178.222 5.49011 177.123 4.32276C176.024 3.13717 174.686 2.1887 173.148 1.47735C171.591 0.765991 169.869 0.419434 167.964 0.419434H153.18V39.6169H160.38V25.4992H165.765L172.946 35.1299C173.514 35.9507 174.082 36.6438 174.687 37.2092C175.273 37.7747 175.859 38.2489 176.408 38.5954C176.976 38.9602 177.508 39.2156 178.02 39.3798C178.533 39.5439 178.991 39.6169 179.376 39.6169H185C183.058 37.0268 181.135 34.455 179.23 31.9014V31.9014ZM172.946 14.9931C172.671 15.6315 172.287 16.1969 171.829 16.6894C171.353 17.1819 170.803 17.5831 170.18 17.875C169.539 18.1668 168.879 18.3127 168.183 18.3127H160.38V7.60594H168.183C168.879 7.60594 169.539 7.75185 170.18 8.04369C170.803 8.33553 171.353 8.73681 171.829 9.22928C172.287 9.72176 172.671 10.2872 172.946 10.9438C173.221 11.5822 173.349 12.2571 173.349 12.9685C173.349 13.6798 173.221 14.3364 172.946 14.9931V14.9931Z" fill="white"/>
<path d="M104.508 0.419434C104.508 0.419434 104.398 5.76371 99.397 5.76371C94.396 5.76371 94.2861 5.76371 94.2861 5.76371C94.2861 5.76371 94.3594 0.419434 99.397 0.419434C104.435 0.419434 104.508 0.419434 104.508 0.419434V0.419434Z" fill="white"/>
</g>
<defs>
<clipPath id="clip0_107_22">
<rect width="185" height="40" fill="white"/>
</clipPath>
</defs>
</svg>
